<?xml version="1.0" encoding="UTF-8"?>
<svg version="1.1" xmlns="http://www.w3.org/2000/svg" width="352" height="351">
<path d="M0 0 C116.16 0 232.32 0 352 0 C352 115.83 352 231.66 352 351 C235.84 351 119.68 351 0 351 C0 235.17 0 119.34 0 0 Z " fill="#FEFEFE" transform="translate(0,0)"/>
<path d="M0 0 C5.61 0 11.22 0 17 0 C17 25.41 17 50.82 17 77 C11.72 77 6.44 77 1 77 C1 75.68 1 74.36 1 73 C0.41734375 73.3609375 -0.1653125 73.721875 -0.765625 74.09375 C-7.57616822 77.94877446 -13.22117478 79.1337559 -21 78 C-27.63389665 76.09008795 -33.81655273 72.63907878 -37.44140625 66.59765625 C-42.07853581 57.60083223 -43.6278141 48.98898445 -41.28125 38.9140625 C-38.74298291 31.4425505 -35.47743702 26.19926731 -28.5625 22.125 C-22.26568766 19.22094774 -15.79842261 18.92734355 -9 20 C-4.545 21.98 -4.545 21.98 0 24 C0 16.08 0 8.16 0 0 Z " fill="#435DA3" transform="translate(169,136)"/>
<path d="M0 0 C6.32846048 4.63944569 10.3091931 10.31739613 12 18 C13.14870812 28.5178587 11.73075787 36.31778714 5.375 44.75 C0.71521192 49.87457513 -6.90318377 53.70493844 -13.8203125 54.203125 C-23.56426903 54.34133715 -31.21905244 53.22475804 -39 47 C-44.24498253 41.84500491 -47.55389464 36.64691135 -48.46875 29.16796875 C-48.54554658 19.38600403 -47.70694091 12.21700865 -40.9453125 4.72265625 C-29.82475709 -5.91690628 -13.63935684 -7.73771205 0 0 Z " fill="#425DA2" transform="translate(240,160)"/>
<path d="M0 0 C3.73697422 2.91074666 5.42522827 5.99834106 6.92578125 10.5 C7.01188639 11.92718637 7.04349953 13.35806648 7.03930664 14.7878418 C7.03923111 15.64850754 7.03915558 16.50917328 7.03907776 17.3959198 C7.03391647 18.32100845 7.02875519 19.24609711 7.0234375 20.19921875 C7.02202255 21.14940384 7.0206076 22.09958893 7.01914978 23.0785675 C7.01355 26.11491029 7.00099757 29.15117948 6.98828125 32.1875 C6.98326622 34.24544164 6.97870332 36.30338444 6.97460938 38.36132812 C6.96358065 43.40758046 6.94631618 48.45377775 6.92578125 53.5 C1.97578125 53.5 -2.97421875 53.5 -8.07421875 53.5 C-8.40421875 52.51 -8.73421875 51.52 -9.07421875 50.5 C-10.16734375 51.16 -11.26046875 51.82 -12.38671875 52.5 C-18.79316436 55.69186386 -25.13585482 55.36705821 -31.88671875 53.375 C-36.91950128 50.41453969 -40.16501444 47.59512298 -42.51171875 42.1875 C-43.35069655 36.68753445 -43.10570789 31.88871169 -40.88671875 26.75 C-37.0659196 22.00693898 -33.07823546 18.77008046 -27.07421875 17.5 C-21.30658578 17.13653391 -15.75796813 17.51152185 -10.07421875 18.5 C-10.40421875 16.85 -10.73421875 15.2 -11.07421875 13.5 C-18.27680274 11.09913867 -25.95574936 12.35102811 -33.07421875 14.5 C-34.10742356 12.90377344 -35.12544304 11.29770894 -36.13671875 9.6875 C-36.70519531 8.79417969 -37.27367187 7.90085938 -37.859375 6.98046875 C-39.07421875 4.5 -39.07421875 4.5 -38.07421875 1.5 C-36.18359375 0.3671875 -36.18359375 0.3671875 -33.82421875 -0.625 C-33.0559375 -0.95757812 -32.28765625 -1.29015625 -31.49609375 -1.6328125 C-21.69701 -5.14151668 -9.07667337 -5.36972945 0 0 Z " fill="#435DA3" transform="translate(91.07421875,159.5)"/>
<path d="M0 0 C0.495 0.495 0.495 0.495 1 1 C0.60905161 6.66875172 -0.55099237 10.88902756 -3 16 C-4.7015625 15.2265625 -4.7015625 15.2265625 -6.4375 14.4375 C-11.15567103 12.68073419 -15.15850729 12.62593826 -20 14 C-23.46121174 16.16325734 -24.70741598 17.12224793 -26 21 C-26.56128245 26.66679397 -26.32838683 31.17957769 -23 36 C-20.45211147 37.88131569 -20.45211147 37.88131569 -18 39 C-18.14308594 39.97839844 -18.14308594 39.97839844 -18.2890625 40.9765625 C-18.95354181 46.21513193 -19.21793267 50.04226816 -17 55 C-25.92577176 54.03234624 -32.87179573 51.8723441 -38.8203125 44.8515625 C-44.0507845 37.44804416 -46.04954076 30.01293128 -45 21 C-42.9453113 12.51273473 -39.672068 6.24950634 -32.47265625 1.2421875 C-22.29887701 -4.62992669 -10.58408502 -5.29204251 0 0 Z " fill="#435DA2" transform="translate(302,159)"/>
<path d="M0 0 C5.22640245 2.66444046 9.35956549 6.60976868 11.9375 11.9375 C12.03606014 15.18998473 11.00698473 17.92604661 10 21 C9.62875 22.134375 9.2575 23.26875 8.875 24.4375 C8.58625 25.283125 8.2975 26.12875 8 27 C8.94875 27.268125 9.8975 27.53625 10.875 27.8125 C14 29 14 29 16 32 C16.99 32 17.98 32 19 32 C17.62740684 35.29142237 16.29739691 36.79419953 13.25 38.625 C12.59515625 39.02976563 11.9403125 39.43453125 11.265625 39.8515625 C3.11729077 43.98192502 -6.21257257 44.4562063 -14.9375 41.75 C-19.591746 39.94476856 -23.45310377 37.54689623 -27 34 C-27 32.68 -27 31.36 -27 30 C-25.63875 30.309375 -25.63875 30.309375 -24.25 30.625 C-20.69095028 31.03565958 -20.01378779 30.60107476 -17 29 C-13.75 28.875 -13.75 28.875 -11 29 C-11.61875 27.948125 -12.2375 26.89625 -12.875 25.8125 C-15.94866131 20.37364541 -17.56195433 16.4062794 -17 10 C-14.20390422 2.07772864 -8.19584755 -1.60960533 0 0 Z " fill="#435DA3" transform="translate(226,171)"/>
<path d="M0 0 C5.61 0 11.22 0 17 0 C17 18.48 17 36.96 17 56 C11.39 56 5.78 56 0 56 C0 37.52 0 19.04 0 0 Z " fill="#425BA1" transform="translate(105,157)"/>
<path d="M0 0 C-2.05233685 2.2477975 -3.00667261 3.0022242 -6 4 C-4.68 4.66 -3.36 5.32 -2 6 C-2.33 6.33 -2.66 6.66 -3 7 C-0.36 7.33 2.28 7.66 5 8 C4.773125 8.598125 4.54625 9.19625 4.3125 9.8125 C4.209375 10.534375 4.10625 11.25625 4 12 C4.495 12.433125 4.99 12.86625 5.5 13.3125 C7 15 7 15 6.9375 18.5 C6 22 6 22 3.9375 23.9375 C2.9784375 24.4634375 2.9784375 24.4634375 2 25 C2.33 25.66 2.66 26.32 3 27 C1.68 27.33 0.36 27.66 -1 28 C-0.45276317 31.37462715 0.0549 33.08235 2 36 C-2.96506045 38.48253022 -9.69371065 37.38546243 -14.8125 35.875 C-19.84528253 32.91453969 -23.09079569 30.09512298 -25.4375 24.6875 C-26.2764778 19.18753445 -26.03148914 14.38871169 -23.8125 9.25 C-17.00212183 0.79573745 -10.25143955 -0.36467572 0 0 Z M-5 8 C-5.33 8.99 -5.66 9.98 -6 11 C-5.01 10.67 -4.02 10.34 -3 10 C-3 9.34 -3 8.68 -3 8 C-3.66 8 -4.32 8 -5 8 Z " fill="#425CA1" transform="translate(74,177)"/>
<path d="M0 0 C3.99025463 1.88219558 5.64576113 3.41721992 7.9375 7.1875 C9.37781166 12.35567715 9.65255168 17.01269504 6.984375 21.8359375 C4.45907008 25.11244072 2.04105514 27.15419776 -2 28 C-6.5475616 28.14818938 -9.24373689 27.59185808 -12.875 24.75 C-16.64076102 19.87666221 -17.54147139 16.17277382 -17 10 C-14.19802596 2.06107355 -8.201027 -1.58782359 0 0 Z " fill="#F9FBFC" transform="translate(226,171)"/>
<path d="M0 0 C3.87211388 2.35145613 6.55582679 4.66748036 8 9 C8.56088796 14.66281112 8.34841375 19.20060696 5 24 C2.3498368 26.46086583 0.44397203 27.87266561 -3.21484375 28.1953125 C-7.53844687 27.95071598 -9.57097126 27.34858585 -13 24.5625 C-16.99755021 19.44063879 -16.60252968 14.3224347 -16 8 C-14.80937127 4.75507403 -12.97847835 2.76880442 -10.25 0.625 C-6.73001989 -0.35277225 -3.56446511 -0.77517178 0 0 Z " fill="#F9FBFC" transform="translate(161,171)"/>
<path d="M0 0 C2.375 1.5625 2.375 1.5625 4 4 C4.46337203 8.40203429 4.48038907 10.2794164 2 14 C-4.78125 15.53125 -4.78125 15.53125 -8.4375 13.9375 C-10.60143415 11.25422165 -10.93131792 9.43410383 -11 6 C-8.40124998 0.43124997 -6.07945309 -0.60794531 0 0 Z " fill="#DE6C4A" transform="translate(298,198)"/>
<path d="M0 0 C2.5 1.5 2.5 1.5 4 3 C3.75 6.375 3.75 6.375 3 10 C0.68635865 11.97087967 -0.97838727 11.99774867 -4 12.3125 C-7.40102286 11.95822679 -8.75923419 11.58549901 -11 9 C-11.45535315 5.87757843 -11.49686954 3.93163039 -10 1.125 C-6.80507218 -0.6721469 -3.5286159 -0.5537868 0 0 Z " fill="#F3F7F9" transform="translate(77,189)"/>
<path d="M0 0 C2.6875 1.8125 2.6875 1.8125 4 4 C4 4.99 4 5.98 4 7 C-1.94 7 -7.88 7 -14 7 C-14.33 5.02 -14.66 3.04 -15 1 C-10.06936809 -0.43034841 -5.08770995 -0.57130582 0 0 Z " fill="#F5F9FA" transform="translate(77,171)"/>
<path d="M0 0 C2.0625 0.4375 2.0625 0.4375 4 1 C2.68 1.33 1.36 1.66 0 2 C0 17.84 0 33.68 0 50 C1.32 50 2.64 50 4 50 C4.33 50.66 4.66 51.32 5 52 C7.01822917 51.90234375 9.03645833 51.8046875 11.0546875 51.70703125 C11.69664063 51.80371094 12.33859375 51.90039062 13 52 C13.66 52.99 14.32 53.98 15 55 C9.39 55 3.78 55 -2 55 C-1.88210563 47.32776817 -1.75788407 39.65567549 -1.62768555 31.98364258 C-1.58425876 29.37136656 -1.54258962 26.75906072 -1.50268555 24.14672852 C-1.44516993 20.40111281 -1.38142236 16.65564831 -1.31640625 12.91015625 C-1.29969376 11.73413345 -1.28298126 10.55811066 -1.26576233 9.34645081 C-1.24581711 8.26540573 -1.22587189 7.18436066 -1.20532227 6.07055664 C-1.18977798 5.11347305 -1.1742337 4.15638947 -1.15821838 3.17030334 C-1 1 -1 1 0 0 Z " fill="#415DA9" transform="translate(107,158)"/>
<path d="M0 0 C1.65 0.33 3.3 0.66 5 1 C4.35546875 1.68449219 3.7109375 2.36898437 3.046875 3.07421875 C0.61828098 6.54562508 0.41937308 8.6205163 0.25 12.8125 C0.19328125 13.97394531 0.1365625 15.13539063 0.078125 16.33203125 C0.05234375 17.21246094 0.0265625 18.09289062 0 19 C0.66 19.33 1.32 19.66 2 20 C1.01 20 0.02 20 -1 20 C-3.23928424 13.80903769 -3.78329047 7.86601405 -0.953125 1.73046875 C-0.63859375 1.15941406 -0.3240625 0.58835938 0 0 Z " fill="#4C62A4" transform="translate(51,185)"/>
<path d="M0 0 C2.4375 0.3125 2.4375 0.3125 4.4375 1.3125 C5.0625 4.375 5.0625 4.375 5.4375 7.3125 C4.0453125 7.0340625 4.0453125 7.0340625 2.625 6.75 C-0.57593771 6.07126119 -0.57593771 6.07126119 -3.5625 7.3125 C-3.5625 6.6525 -3.5625 5.9925 -3.5625 5.3125 C-4.2225 4.9825 -4.8825 4.6525 -5.5625 4.3125 C-3.236288 0.39466927 -3.236288 0.39466927 0 0 Z " fill="#DF643F" transform="translate(294.5625,198.6875)"/>
<path d="M0 0 C0.33 0.66 0.66 1.32 1 2 C3.01822917 1.90234375 5.03645833 1.8046875 7.0546875 1.70703125 C7.69664063 1.80371094 8.33859375 1.90039062 9 2 C9.99 3.485 9.99 3.485 11 5 C5.39 5 -0.22 5 -6 5 C-4 1 -4 1 -1.875 0.25 C-1.25625 0.1675 -0.6375 0.085 0 0 Z " fill="#576DAA" transform="translate(111,208)"/>
<path d="M0 0 C0.66 0 1.32 0 2 0 C4.22860347 5.07626346 3.79183442 7.82358944 2 13 C2 13.66 2 14.32 2 15 C0.35 15.33 -1.3 15.66 -3 16 C-2.505 15.030625 -2.01 14.06125 -1.5 13.0625 C0.39857367 8.71271619 0.28589988 4.66969796 0 0 Z " fill="#586CA3" transform="translate(234,179)"/>
<path d="M0 0 C0.33 0 0.66 0 1 0 C2.0712828 6.02596573 2.09945415 11.88909517 2 18 C-0.77496283 13.83755576 -1.1396203 10.7614701 -1.125 5.8125 C-1.12757813 4.93207031 -1.13015625 4.05164063 -1.1328125 3.14453125 C-1 1 -1 1 0 0 Z " fill="#5B70AA" transform="translate(258,179)"/>
<path d="M0 0 C1.28132813 0.10183594 2.56265625 0.20367187 3.8828125 0.30859375 C4.87023437 0.39238281 5.85765625 0.47617188 6.875 0.5625 C6.875 0.8925 6.875 1.2225 6.875 1.5625 C4.895 1.8925 2.915 2.2225 0.875 2.5625 C0.875 3.2225 0.875 3.8825 0.875 4.5625 C-0.60617801 4.28122579 -2.08493249 3.98716268 -3.5625 3.6875 C-4.38621094 3.52507812 -5.20992187 3.36265625 -6.05859375 3.1953125 C-6.74050781 2.98648438 -7.42242187 2.77765625 -8.125 2.5625 C-8.455 1.9025 -8.785 1.2425 -9.125 0.5625 C-6.07230154 -0.96384923 -3.36654311 -0.27544444 0 0 Z " fill="#4D64A9" transform="translate(65.125,209.4375)"/>
<path d="M0 0 C1.0625 1.875 1.0625 1.875 2 4 C1.67 4.66 1.34 5.32 1 6 C0.34 6 -0.32 6 -1 6 C-1.66 8.31 -2.32 10.62 -3 13 C-3.66 12.01 -4.32 11.02 -5 10 C-4.06609915 6.00969635 -2.64025891 3.12030598 0 0 Z " fill="#526BA8" transform="translate(134,163)"/>
<path d="M0 0 C1.04976964 3.14930893 1.10131595 5.38814456 1.0625 8.6875 C1.05347656 9.68136719 1.04445313 10.67523438 1.03515625 11.69921875 C1.02355469 12.45847656 1.01195312 13.21773437 1 14 C0.34 12.68 -0.32 11.36 -1 10 C-1.66 10 -2.32 10 -3 10 C-2.49287967 6.28111761 -1.88391785 3.26545761 0 0 Z " fill="#4F64A4" transform="translate(261,169)"/>
<path d="M0 0 C0 0.66 0 1.32 0 2 C0.99 2.33 1.98 2.66 3 3 C2.01 3.495 2.01 3.495 1 4 C0.34 3.67 -0.32 3.34 -1 3 C-7.08516056 2.76666713 -7.08516056 2.76666713 -13 4 C-13.33 3.01 -13.66 2.02 -14 1 C-12.04175306 0.83232136 -10.08339945 0.66588795 -8.125 0.5 C-6.48917969 0.36078125 -6.48917969 0.36078125 -4.8203125 0.21875 C-3.21670436 0.09437042 -1.60842449 0 0 0 Z " fill="#4A629D" transform="translate(227,169)"/>
<path d="M0 0 C0.66 0 1.32 0 2 0 C2 0.66 2 1.32 2 2 C2.66 2 3.32 2 4 2 C4.33 4.97 4.66 7.94 5 11 C2.03947516 7.63576723 1.07710178 4.30840713 0 0 Z " fill="#5266A8" transform="translate(192,191)"/>
<path d="M0 0 C2.31 0.33 4.62 0.66 7 1 C6.34 2.65 5.68 4.3 5 6 C2.525 5.01 2.525 5.01 0 4 C0 2.68 0 1.36 0 0 Z " fill="#4E67A4" transform="translate(294,169)"/>
<path d="M0 0 C0.66 0 1.32 0 2 0 C1.649375 0.5775 1.29875 1.155 0.9375 1.75 C-0.14917407 4.35801776 0.06934867 5.39417629 1 8 C-0.32 8 -1.64 8 -3 8 C-2.25 2.25 -2.25 2.25 0 0 Z " fill="#DB775B" transform="translate(290,199)"/>
<path d="M0 0 C2.62187494 1.04874998 3.79371361 1.64931313 5.25 4.125 C5.4975 4.74375 5.745 5.3625 6 6 C5.01 6 4.02 6 3 6 C0.8125 3.5 0.8125 3.5 -1 1 C-0.67 0.67 -0.34 0.34 0 0 Z " fill="#E9EEEF" transform="translate(242,160)"/>
<path d="M0 0 C0.66 1.32 1.32 2.64 2 4 C-4.75 5.125 -4.75 5.125 -7 4 C-4.69 2.68 -2.38 1.36 0 0 Z " fill="#5268A8" transform="translate(230,195)"/>
<path d="M0 0 C0.33 0 0.66 0 1 0 C1.66 3.3 2.32 6.6 3 10 C1.68 9.67 0.36 9.34 -1 9 C-1.125 2.25 -1.125 2.25 0 0 Z " fill="#5265A5" transform="translate(274,183)"/>
<path d="M0 0 C-0.33 0.99 -0.66 1.98 -1 3 C-3.875 3.625 -3.875 3.625 -7 4 C-7.66 3.34 -8.32 2.68 -9 2 C-3.375 0 -3.375 0 0 0 Z " fill="#546DA9" transform="translate(67,177)"/>
<path d="M0 0 C0.99 0.33 1.98 0.66 3 1 C3 1.99 3 2.98 3 4 C0.69 4.66 -1.62 5.32 -4 6 C-1.125 1.125 -1.125 1.125 0 0 Z " fill="#4D65A7" transform="translate(267,162)"/>
<path d="M0 0 C0.66 0 1.32 0 2 0 C2.73080266 1.97746603 3.39421747 3.98072489 4 6 C3.67 6.66 3.34 7.32 3 8 C2.34 8 1.68 8 1 8 C0.67 5.36 0.34 2.72 0 0 Z " fill="#5065A6" transform="translate(234,179)"/>
</svg>
