<?xml version="1.0" encoding="UTF-8"?>
<svg version="1.1" xmlns="http://www.w3.org/2000/svg" width="400" height="350">
<path d="M0 0 C132 0 264 0 400 0 C400 115.5 400 231 400 350 C268 350 136 350 0 350 C0 234.5 0 119 0 0 Z " fill="#FDFEFE" transform="translate(0,0)"/>
<path d="M0 0 C3.51266584 -0.07302803 7.02513342 -0.11688011 10.53833008 -0.15576172 C11.52573433 -0.17664352 12.51313858 -0.19752533 13.53046417 -0.21903992 C22.24676943 -0.29130109 28.05586708 1.56609669 35.6875 5.875 C36.810354 6.46128174 37.93320801 7.04756348 39.09008789 7.65161133 C42.41531652 9.39658021 45.70658829 11.19591076 49 13 C50.92925374 14.01232126 52.86137286 15.01920841 54.796875 16.01953125 C58.62580012 18.00145532 62.43656527 20.01269312 66.23022461 22.0612793 C68.13807224 23.073236 70.06499596 24.04114708 72 25 C72 25.66 72 26.32 72 27 C72.83402344 27.22816406 73.66804688 27.45632812 74.52734375 27.69140625 C78.67240528 29.25338107 81.94367182 31.42210589 85.5625 33.9375 C86.85477071 34.82263457 88.14772531 35.70677161 89.44140625 36.58984375 C90.0537915 37.00927246 90.66617676 37.42870117 91.29711914 37.86083984 C93.48302454 39.32312437 95.7435495 40.64989045 98 42 C109.44387649 49.889762 120.51510849 58.50172256 130.734375 67.92578125 C133.61855684 70.56629945 136.60173547 73.08208321 139.6015625 75.58984375 C141 77 141 77 141 79 C141.81210937 79.29390625 141.81210937 79.29390625 142.640625 79.59375 C146.05552093 81.62911843 148.2362472 84.45842509 150.75 87.5 C151.25660156 88.09425781 151.76320312 88.68851562 152.28515625 89.30078125 C156 93.73656503 156 93.73656503 156 96 C156.99 96.33 157.98 96.66 159 97 C160.953125 99.6953125 160.953125 99.6953125 163 103 C163.92039063 104.41925781 163.92039063 104.41925781 164.859375 105.8671875 C183.83225962 136.05132212 193.80856325 169.04104171 185.90039062 204.80395508 C178.92315313 233.37064297 164.23009594 257.9750745 145 280 C144.67 279.34 144.34 278.68 144 278 C145.14555568 275.71191922 146.34765911 273.52531506 147.625 271.3125 C155.48999497 256.97095763 160.0115673 242.61674231 156.11328125 226.28515625 C152.82392248 216.91977264 147.23780339 209.69496813 140 203 C139.05125 202.0925 138.1025 201.185 137.125 200.25 C127.44327185 192.10138716 115.70725706 186.53572588 104 182 C102.98550781 181.59394531 101.97101563 181.18789062 100.92578125 180.76953125 C87.51193704 175.6712805 73.38927746 172.18576326 59.43359375 168.91015625 C36.92472412 163.61795986 18.39445707 156.83756232 5.59765625 136.8046875 C0.48236893 127.57786735 -0.44481709 117.05109155 -0.34057617 106.71386719 C-0.34101425 105.55143997 -0.34145233 104.38901276 -0.34190369 103.19136047 C-0.33983283 99.39302087 -0.31658223 95.5951364 -0.29296875 91.796875 C-0.28736673 89.14600885 -0.28295171 86.4951671 -0.28010559 83.84429932 C-0.27083181 77.60787028 -0.24628232 71.37160157 -0.21605712 65.1352427 C-0.18236647 58.0275045 -0.16599049 50.91975809 -0.15097082 43.81195974 C-0.11972777 29.20789098 -0.06705955 14.60394774 0 0 Z " fill="#2779FE" transform="translate(0,0)"/>
<path d="M0 0 C0.9796875 0.00644531 1.959375 0.01289062 2.96875 0.01953125 C3.98453125 0.03628906 5.0003125 0.05304687 6.046875 0.0703125 C7.078125 0.07933594 8.109375 0.08835938 9.171875 0.09765625 C11.71377787 0.12119239 14.2552078 0.15407227 16.796875 0.1953125 C16.89076271 15.17381674 16.96107007 30.15229798 17.00412369 45.13103485 C17.02465516 52.08762004 17.0525928 59.04402127 17.09863281 66.00048828 C17.14311172 72.7243449 17.16606871 79.44797177 17.17638397 86.17198181 C17.18372726 88.72658784 17.1980658 91.28118445 17.21979523 93.83570862 C17.38996209 114.68563151 16.68196873 132.4568356 2.34765625 148.76171875 C0.796875 150.1953125 0.796875 150.1953125 -1.203125 150.1953125 C-1.533125 151.1853125 -1.863125 152.1753125 -2.203125 153.1953125 C-13.86574287 161.5726859 -29.03934368 165.34630344 -42.7734375 168.61181641 C-94.80998579 181.07175682 -94.80998579 181.07175682 -134.203125 215.1953125 C-140.67999183 228.18018494 -142.00715924 240.65218884 -138.39453125 254.71875 C-136.1744359 261.19706103 -133.11941687 267.27783007 -130.06982422 273.3984375 C-128.99766327 275.62128386 -128.07340724 277.88658448 -127.203125 280.1953125 C-135.06079177 272.57575685 -141.27950693 264.40331287 -147.203125 255.1953125 C-147.80253906 254.29683594 -148.40195313 253.39835938 -149.01953125 252.47265625 C-167.93016913 223.74710118 -175.92570132 188.42272715 -169.171875 154.49609375 C-163.82307317 129.90155144 -151.52919043 109.85724965 -136.203125 90.1953125 C-135.7380957 89.5967041 -135.27306641 88.9980957 -134.79394531 88.38134766 C-133.64561892 86.94572935 -132.430004 85.56440758 -131.203125 84.1953125 C-130.543125 84.1953125 -129.883125 84.1953125 -129.203125 84.1953125 C-128.9659375 83.63328125 -128.72875 83.07125 -128.484375 82.4921875 C-126.91364803 79.67637208 -124.98841036 77.71575834 -122.703125 75.4453125 C-121.9090625 74.64609375 -121.115 73.846875 -120.296875 73.0234375 C-118.203125 71.1953125 -118.203125 71.1953125 -116.203125 71.1953125 C-116.203125 70.5353125 -116.203125 69.8753125 -116.203125 69.1953125 C-114.32421875 67.453125 -114.32421875 67.453125 -111.640625 65.3203125 C-110.63644531 64.51851563 -109.63226563 63.71671875 -108.59765625 62.890625 C-107.77515381 62.2394873 -107.77515381 62.2394873 -106.93603516 61.57519531 C-105.14253832 60.1470685 -103.36510354 58.70071937 -101.58984375 57.25 C-83.66304143 42.6502807 -64.2238799 30.26975709 -43.96142578 19.17016602 C-42.1150756 18.14649533 -40.28793357 17.09292879 -38.4609375 16.03515625 C-35.203125 14.1953125 -35.203125 14.1953125 -31.828125 12.7578125 C-29.01589123 11.54564277 -26.52860853 10.27847787 -23.890625 8.7578125 C-19.87306548 6.47385743 -15.78333624 4.72405589 -11.46484375 3.08984375 C-9.22994172 2.26888851 -9.22994172 2.26888851 -7.38696289 1.15161133 C-4.76303669 0.00259859 -2.85760714 -0.03322799 0 0 Z " fill="#2779FE" transform="translate(383.203125,-0.1953125)"/>
<path d="M0 0 C1.9634337 2.94515055 2.52728919 4.74329455 3.3125 8.125 C4.78362987 13.68748109 6.87496775 18.18762252 10 23 C10.45761719 23.75152344 10.91523438 24.50304687 11.38671875 25.27734375 C22.77331554 42.05608209 48.30673989 46.54950713 66.70458984 50.8034668 C92.53618257 56.78951424 116.55845612 65.02864515 138 81 C139.010625 81.721875 140.02125 82.44375 141.0625 83.1875 C150.39470066 91.32666364 157.37871691 102.8934124 158.47265625 115.296875 C159.32047985 132.01574034 152.6466793 145.56048896 145 160 C145.66 159.67 146.32 159.34 147 159 C146.67 160.65 146.34 162.3 146 164 C145.360625 164.103125 144.72125 164.20625 144.0625 164.3125 C143.381875 164.539375 142.70125 164.76625 142 165 C141.67 165.99 141.34 166.98 141 168 C139.31090232 169.58749782 137.51598057 170.97391918 135.69140625 172.40234375 C133.85355715 174.13832593 133.1176081 175.76018459 132 178 C130.03696582 179.07074592 128.0302589 180.06295743 126 181 C123.97386717 182.29327628 121.97485205 183.6296945 120 185 C119.40832031 185.40476562 118.81664063 185.80953125 118.20703125 186.2265625 C117.60246094 186.64679688 116.99789062 187.06703125 116.375 187.5 C115.82585937 187.8815625 115.27671875 188.263125 114.7109375 188.65625 C112.89423855 190.02528299 112.89423855 190.02528299 111.06640625 191.95703125 C109.00985913 193.99025269 106.94777975 195.55843036 104.5625 197.1875 C101.78699417 199.08589793 99.02142827 200.98443272 96.30078125 202.9609375 C64.36769997 225.89818413 43.34128923 231 0 231 C0 154.77 0 78.54 0 0 Z " fill="#FCFDFE" transform="translate(0,119)"/>
<path d="M0 0 C0.33 0 0.66 0 1 0 C1 76.89 1 153.78 1 233 C-51.20015182 233 -51.20015182 233 -78.6875 216.125 C-79.65099365 215.53549561 -80.6144873 214.94599121 -81.60717773 214.33862305 C-89.47790288 209.45522117 -96.92366298 204.1624648 -104.18994141 198.42480469 C-106.00314747 196.99752244 -107.83285946 195.59428352 -109.66796875 194.1953125 C-120.12916305 186.17336667 -129.78534504 177.43062344 -139 168 C-139.64066406 167.42894531 -140.28132813 166.85789062 -140.94140625 166.26953125 C-143.58441212 163.35570504 -145.23159384 160.13230621 -146.9375 156.625 C-147.28304932 155.9232666 -147.62859863 155.2215332 -147.98461914 154.49853516 C-154.77981815 140.40725473 -160.07236173 125.15701754 -156.09375 109.4140625 C-153.67422803 102.76037709 -150.61473182 97.33614151 -146 92 C-145.26716797 91.03707031 -145.26716797 91.03707031 -144.51953125 90.0546875 C-126.25297287 67.05235473 -89.85660748 57.32790939 -62.36279297 51.59326172 C-43.23857447 47.59148874 -21.35828584 41.89100648 -9.14453125 25.51171875 C-4.124572 17.54175876 -1.83921275 9.15278815 0 0 Z " fill="#FCFDFE" transform="translate(399,117)"/>
<path d="M0 0 C1.20011719 0.44601563 2.40023437 0.89203125 3.63671875 1.3515625 C7.46252825 2.8159803 11.23092128 4.39534272 15 6 C15.87269531 6.36480469 16.74539063 6.72960937 17.64453125 7.10546875 C25.2874676 10.38483724 32.363598 13.73733111 38 20 C39.175625 21.11375 39.175625 21.11375 40.375 22.25 C57.41649583 40.10299563 60.13167794 58.84544688 60.2734375 82.546875 C60.27876118 83.38188789 60.28408485 84.21690079 60.28956985 85.0772171 C60.3161382 89.4855507 60.3355761 93.89385739 60.35009766 98.30224609 C60.36349738 101.94149569 60.3914828 105.58019261 60.43212891 109.21923828 C60.4813945 113.63225477 60.50620788 118.04476625 60.51332474 122.45804596 C60.52003431 124.13420402 60.53524889 125.81035088 60.55921555 127.48635101 C60.5908178 129.82711546 60.59091424 132.16591442 60.58349609 134.50683594 C60.59990143 135.19472702 60.61630676 135.8826181 60.63320923 136.59135437 C60.58418854 140.37321763 60.06765366 141.91579757 57.66860962 144.90167236 C54.23325667 147.60289025 52.37237149 148.07807806 48 148 C44.95874149 146.99756137 42.27761132 145.51737156 39.5 143.9375 C38.68684326 143.49067871 37.87368652 143.04385742 37.03588867 142.58349609 C34.34014476 141.08385337 31.66812554 139.54821805 29 138 C27.58001709 137.17894775 27.58001709 137.17894775 26.13134766 136.34130859 C14.16482817 129.36600061 2.68382636 122.01104098 -8.18994141 113.42480469 C-10.00314747 111.99752244 -11.83285946 110.59428352 -13.66796875 109.1953125 C-20.53366931 103.93049508 -27.09676261 98.43251063 -33.375 92.4765625 C-34.92289969 91.01619285 -36.49706184 89.58151779 -38.125 88.2109375 C-46.1881503 81.15568099 -49.07742765 69.3631415 -50 59 C-50.93314755 44.58768552 -50.16881271 30.88278128 -41 19 C-40.42378906 18.24976563 -39.84757812 17.49953125 -39.25390625 16.7265625 C-34.52026162 10.9928521 -29.57629594 7.38554022 -23 4 C-21.95199219 3.41605469 -20.90398437 2.83210937 -19.82421875 2.23046875 C-12.40058778 -1.6340066 -7.86486605 -2.99292471 0 0 Z " fill="#2779FE" transform="translate(303,202)"/>
<path d="M0 0 C0.98871094 0.42539063 1.97742188 0.85078125 2.99609375 1.2890625 C16.46039733 8.65672942 26.08909451 17.36616832 31.4375 32 C35.32294392 46.1793473 33.25620012 60.21118689 29 74 C28.83113281 74.77472656 28.66226563 75.54945313 28.48828125 76.34765625 C26.58432715 83.76546144 19.4455469 88.99355206 14 94 C12.85144531 95.06347656 12.85144531 95.06347656 11.6796875 96.1484375 C8.65875864 98.86135009 5.57321909 101.35492339 2.25 103.6875 C-0.90402128 105.79205015 -0.90402128 105.79205015 -2.92578125 107.9453125 C-4.98501391 109.98515502 -7.04695589 111.55483497 -9.4375 113.1875 C-12.21300583 115.08589793 -14.97857173 116.98443272 -17.69921875 118.9609375 C-27.77309099 126.19690982 -38.5045388 132.30023069 -49.2734375 138.43505859 C-51.58410999 139.76129522 -53.87382719 141.11432278 -56.15625 142.48828125 C-64.75839218 147.50284778 -64.75839218 147.50284778 -69.5625 147.25 C-73.63367934 145.76957115 -74.71445983 144.63493559 -77 141 C-77.38225789 138.3651123 -77.53872356 136.15346355 -77.50170898 133.52612305 C-77.50711197 132.79031509 -77.51251495 132.05450714 -77.51808167 131.29640198 C-77.53056703 128.86776217 -77.51406256 126.44030993 -77.49609375 124.01171875 C-77.49624893 122.3084151 -77.49774097 120.60511111 -77.50050354 118.90180969 C-77.50188807 115.32655266 -77.48933503 111.75169643 -77.46655273 108.17651367 C-77.43840503 103.63908357 -77.44083963 99.10233103 -77.45364285 94.56485271 C-77.46067624 91.04102517 -77.45272071 87.51734812 -77.44038582 83.99353981 C-77.4359283 82.32374465 -77.43548349 80.65393297 -77.43945122 78.98413658 C-77.45709721 65.00333769 -76.94165203 50.57576786 -69.875 38.125 C-69.51535156 37.45082031 -69.15570313 36.77664062 -68.78515625 36.08203125 C-67.8738058 34.37879576 -66.93884459 32.68823624 -66 31 C-65.67 30.34 -65.34 29.68 -65 29 C-64.34 29 -63.68 29 -63 29 C-62.773125 28.443125 -62.54625 27.88625 -62.3125 27.3125 C-60.63283467 24.35308965 -58.45961747 22.2971899 -56 20 C-54.96359375 18.95585937 -54.96359375 18.95585937 -53.90625 17.890625 C-47.54981425 11.74056704 -41.18735893 8.16834505 -33 5 C-32.11957031 4.64421875 -31.23914063 4.2884375 -30.33203125 3.921875 C-27.33868999 2.72293992 -24.32970039 1.57494335 -21.3125 0.4375 C-20.35061768 0.05392334 -19.38873535 -0.32965332 -18.39770508 -0.72485352 C-11.3249161 -3.28139288 -6.86607561 -3.00820856 0 0 Z " fill="#2779FE" transform="translate(114,203)"/>
<path d="M0 0 C0.88336837 2.4667645 1.1312406 3.63859372 0.22265625 6.140625 C-0.16019531 6.83671875 -0.54304688 7.5328125 -0.9375 8.25 C-1.31777344 8.95640625 -1.69804688 9.6628125 -2.08984375 10.390625 C-2.39019531 10.92171875 -2.69054688 11.4528125 -3 12 C-2.01 13.485 -2.01 13.485 -1 15 C-0.875 17.6875 -0.875 17.6875 -1 20 C-3.475 19.01 -3.475 19.01 -6 18 C-5.67 18.66 -5.34 19.32 -5 20 C-4.86584528 22.6723621 -4.95681459 25.32250488 -5 28 C-5.66 28.33 -6.32 28.66 -7 29 C-7.06953038 39.21392327 -7.12282675 49.42779017 -7.15543652 59.64190197 C-7.1710881 64.38480683 -7.19231715 69.1275497 -7.22631836 73.87036133 C-7.25892985 78.44800215 -7.27685684 83.02548721 -7.28463173 87.60323524 C-7.29017202 89.34913904 -7.30099089 91.09503438 -7.31719017 92.84087181 C-7.33898842 95.28757482 -7.34196595 97.73363533 -7.34057617 100.18041992 C-7.351362 100.90115189 -7.36214783 101.62188385 -7.3732605 102.36445618 C-7.34629477 106.75582084 -6.60614636 109.45524402 -4 113 C-7.16115776 111.63016497 -7.9927092 111.0109362 -10 108 C-10.19897433 105.54672857 -10.28342418 103.20679116 -10.2746582 100.75317383 C-10.27976913 100.01765793 -10.28488007 99.28214203 -10.29014587 98.52433777 C-10.30407428 96.08515325 -10.3030802 93.64625092 -10.30078125 91.20703125 C-10.30467146 89.5008687 -10.3090068 87.7947071 -10.31376648 86.08854675 C-10.32123932 82.50146359 -10.32093342 78.91447876 -10.31567383 75.32739258 C-10.30993166 70.77426008 -10.32667609 66.22154138 -10.3500185 61.66847706 C-10.36491322 58.13610046 -10.36560552 54.60381931 -10.36250877 51.07141685 C-10.36301593 49.39602539 -10.36813727 47.7206277 -10.37832069 46.04526711 C-10.45098933 32.39604721 -10.06110562 18.22388943 -3.3125 6 C-2.37857422 4.2675 -2.37857422 4.2675 -1.42578125 2.5 C-0.95527344 1.675 -0.48476563 0.85 0 0 Z " fill="#4F87E5" transform="translate(47,236)"/>
<path d="M0 0 C6.5584598 5.30922936 7.96299616 16.16790891 8.7947998 24.05648804 C9.27072586 30.88345049 9.1874844 37.74131392 9.203125 44.58203125 C9.20595238 45.41829229 9.20877975 46.25455334 9.21169281 47.11615562 C9.22659871 51.5298328 9.23588608 55.94347792 9.24023438 60.35717773 C9.24574882 64.91128896 9.26986316 69.4651057 9.29820633 74.01912403 C9.31681089 77.53039933 9.32203684 81.04160277 9.32357025 84.5529232 C9.32659534 86.23265911 9.33461904 87.9123938 9.34775543 89.59208107 C9.3647926 91.93507344 9.36294332 94.27733232 9.35644531 96.62036133 C9.3656601 97.31184769 9.37487488 98.00333405 9.3843689 98.71577454 C9.35772921 101.77900111 9.12821507 103.77415626 7.60272217 106.46122742 C6 108 6 108 4 108 C4.33 106.35 4.66 104.7 5 103 C5.66 103 6.32 103 7 103 C6.91483642 93.54922844 6.81967607 84.09862152 6.71247292 74.64807415 C6.66296885 70.25768241 6.61664362 65.86730959 6.578125 61.47680664 C6.54068136 57.2231985 6.49418084 52.96976928 6.44193649 48.71631813 C6.42370035 47.11043313 6.40848507 45.50451027 6.39665604 43.89856529 C6.30727101 32.15985786 5.40262017 20.65437798 4 9 C3.34 9 2.68 9 2 9 C0.50178941 5.62902617 0 3.79557881 0 0 Z " fill="#4F88E8" transform="translate(354,240)"/>
<path d="M0 0 C0.33 0 0.66 0 1 0 C1.97432096 18.90182668 -3.24858507 32.47437529 -12 49 C-11.01 48.505 -11.01 48.505 -10 48 C-10.33 49.65 -10.66 51.3 -11 53 C-11.639375 53.103125 -12.27875 53.20625 -12.9375 53.3125 C-13.618125 53.539375 -14.29875 53.76625 -15 54 C-15.33 54.99 -15.66 55.98 -16 57 C-17.68909768 58.58749782 -19.48401943 59.97391918 -21.30859375 61.40234375 C-23.10877206 62.91933565 -23.10877206 62.91933565 -24.0390625 65.08203125 C-25.55266461 68.10308261 -27.96721571 68.76212886 -31 70 C-31.99 70 -32.98 70 -34 70 C-33.10796875 69.18015625 -32.2159375 68.3603125 -31.296875 67.515625 C-30.11454214 66.42712808 -28.93225277 65.33858392 -27.75 64.25 C-27.16347656 63.71117187 -26.57695312 63.17234375 -25.97265625 62.6171875 C-24.82343755 61.55835678 -23.67864577 60.49469885 -22.53857422 59.42602539 C-21.30048187 58.2785012 -20.02655193 57.16970606 -18.7421875 56.07421875 C-16.33034478 53.20271991 -15.37957187 50.10831385 -14.375 46.5625 C-14.16335205 45.83619385 -13.9517041 45.1098877 -13.73364258 44.36157227 C-11.22638449 35.09163593 -10.60059668 25.5518783 -10 16 C-9.67 16 -9.34 16 -9 16 C-8.67 19.96 -8.34 23.92 -8 28 C-4.05164384 26.49626654 -4.05164384 26.49626654 -2.98828125 24.1796875 C-0.64873334 16.20088249 -0.29722166 8.26071225 0 0 Z " fill="#D8EEFD" transform="translate(157,230)"/>
<path d="M0 0 C1.51303711 0.02707031 1.51303711 0.02707031 3.05664062 0.0546875 C5.5173462 0.10133595 7.97755524 0.17305994 10.4375 0.25 C10.4375 4.21 10.4375 8.17 10.4375 12.25 C7.4375 8.25 7.4375 8.25 7.4375 6.25 C6.2 5.92 4.9625 5.59 3.6875 5.25 C2.99140625 5.064375 2.2953125 4.87875 1.578125 4.6875 C-0.85151861 4.11650651 -0.85151861 4.11650651 -4.5625 4.25 C-4.8925 5.24 -5.2225 6.23 -5.5625 7.25 C-10.14779491 9.3515935 -12.70630627 9.48047088 -17.5 7.875 C-18.8615606 7.3521971 -20.21865568 6.81679148 -21.5625 6.25 C-19.99749618 3.11999236 -17.39243967 2.42674607 -14.25830078 1.08789062 C-9.53362632 -0.38060084 -4.90159923 -0.16868508 0 0 Z " fill="#2B7AF5" transform="translate(389.5625,-0.25)"/>
<path d="M0 0 C0.66 0 1.32 0 2 0 C0.96647366 2.63694104 -0.10598595 5.23059973 -1.2890625 7.8046875 C-6.7478834 20.3503987 -6.41446564 33.11844454 -2 46 C0.16478102 51.17043716 2.63454879 56.18806832 5.13330078 61.203125 C6.20546173 63.42597136 7.12971776 65.69127198 8 68 C0.4541755 60.68283684 -5.54993436 53.01165868 -11 44 C-8 44 -8 44 -6.3125 45.5 C-5.879375 45.995 -5.44625 46.49 -5 47 C-5 44.69 -5 42.38 -5 40 C-5.66 40 -6.32 40 -7 40 C-7.05864392 36.33340185 -7.09381108 32.66692636 -7.125 29 C-7.15013672 27.45505859 -7.15013672 27.45505859 -7.17578125 25.87890625 C-7.22713141 17.81693102 -6.58151394 11.08465506 -2.375 4 C-1.92898437 3.236875 -1.48296875 2.47375 -1.0234375 1.6875 C-0.68570313 1.130625 -0.34796875 0.57375 0 0 Z " fill="#4380E5" transform="translate(248,212)"/>
<path d="M0 0 C7.95276245 6.37059232 7.95276245 6.37059232 10.96484375 10.75 C10.63484375 11.41 10.30484375 12.07 9.96484375 12.75 C8.58921521 11.46034824 7.25717982 10.12310707 5.96484375 8.75 C5.96484375 8.09 5.96484375 7.43 5.96484375 6.75 C5.42859375 6.5025 4.89234375 6.255 4.33984375 6 C0.50505314 3.98168915 -3.0213116 1.67694368 -6.22265625 -1.25 C-14.19828537 -6.92155849 -22.47573556 -7.85059188 -32.03515625 -7.25 C-32.03515625 -6.59 -32.03515625 -5.93 -32.03515625 -5.25 C-37.39955269 -2.56780178 -41.04522578 -1.9347405 -47.03515625 -2.25 C-43.06755875 -4.895065 -38.92362244 -6.39704 -34.47265625 -8.0625 C-33.61607422 -8.41248047 -32.75949219 -8.76246094 -31.87695312 -9.12304688 C-20.11346477 -13.46907606 -9.4874345 -7.03315608 0 0 Z " fill="#457FE2" transform="translate(128.03515625,211.25)"/>
<path d="M0 0 C0.33 0 0.66 0 1 0 C1 7.26 1 14.52 1 22 C0.34 22 -0.32 22 -1 22 C-1.33 24.64 -1.66 27.28 -2 30 C-1.01 30 -0.02 30 1 30 C1.33 29.01 1.66 28.02 2 27 C2.66 27.33 3.32 27.66 4 28 C-1.38819323 35.59045205 -7.03268329 42.85855848 -13 50 C-13.33 49.34 -13.66 48.68 -14 48 C-12.85443579 45.71190218 -11.65256023 43.52521318 -10.375 41.3125 C-2.90097204 27.71071788 -0.19440216 15.42846232 0 0 Z " fill="#3B7DE7" transform="translate(158,230)"/>
<path d="M0 0 C0.66 0.33 1.32 0.66 2 1 C3.30643327 6.6791955 3.16729969 12.80239838 3.23706055 18.60913086 C3.25017273 19.41677887 3.26328491 20.22442688 3.27679443 21.05654907 C3.31815393 23.69260179 3.35291542 26.32868402 3.38671875 28.96484375 C3.41240672 30.80807118 3.43819051 32.65129728 3.46406555 34.49452209 C3.516793 38.33981912 3.56576247 42.18514394 3.61254883 46.03051758 C3.67327645 50.96601694 3.74748165 55.90121667 3.82492352 60.83647823 C3.8823657 64.63410323 3.93072949 68.43180381 3.976511 72.22958565 C3.99995023 74.05055828 4.02671386 75.8714912 4.05682945 77.69236565 C4.09779755 80.22710939 4.12608783 82.76168676 4.15112305 85.29663086 C4.16609329 86.0514122 4.18106354 86.80619354 4.19648743 87.58384705 C4.20756545 89.39038504 4.1132786 91.19698303 4 93 C2 95 2 95 -1.625 95.125 C-2.73875 95.08375 -3.8525 95.0425 -5 95 C-3 93 -1 91 1 89 C1.10029947 86.65985988 1.13618691 84.34922795 1.12939453 82.00854492 C1.13114685 81.27664948 1.13289917 80.54475403 1.13470459 79.79067993 C1.13912942 77.35391919 1.13617961 74.91723032 1.1328125 72.48046875 C1.13348616 70.78428636 1.1344567 69.08810406 1.13571167 67.391922 C1.13719013 63.82320239 1.13503228 60.25450773 1.13037109 56.68579102 C1.12472127 52.14131484 1.12792139 47.59689834 1.13394356 43.05242443 C1.13758606 39.54081283 1.13639296 36.02921497 1.13381577 32.51760292 C1.13315416 30.8444957 1.13394774 29.17138718 1.13629532 27.49828148 C1.14637679 18.27888838 0.98613916 9.17995049 0 0 Z " fill="#E1F7FE" transform="translate(361,255)"/>
<path d="M0 0 C0.33 0 0.66 0 1 0 C1.03738281 0.90878906 1.07476562 1.81757813 1.11328125 2.75390625 C1.74646777 14.85894271 3.1798389 26.75295744 8 38 C5 37 5 37 3.02734375 33.61328125 C2.32040154 32.18475207 1.62419763 30.75087036 0.9375 29.3125 C0.58623047 28.60416016 0.23496094 27.89582031 -0.12695312 27.16601562 C-2.07152669 23.18496994 -3.70816222 19.2503471 -5 15 C-3.35 14.67 -1.7 14.34 0 14 C0 9.38 0 4.76 0 0 Z " fill="#E1F3FE" transform="translate(252,246)"/>
<path d="M0 0 C8.3568028 15.74878823 3.14912638 40.58872335 -1 57 C-1.33 57 -1.66 57 -2 57 C-2.09244238 51.72714509 -1.78970734 46.82459235 -1.0078125 41.59375 C0.18840165 32.87672743 0.22860617 24.28306663 0.125 15.5 C0.11492835 13.98307897 0.10581005 12.4661513 0.09765625 10.94921875 C0.07602408 7.29933692 0.0417367 3.6497141 0 0 Z " fill="#4F8AEC" transform="translate(185,155)"/>
<path d="M0 0 C0.88336837 2.4667645 1.1312406 3.63859372 0.22265625 6.140625 C-0.16019531 6.83671875 -0.54304688 7.5328125 -0.9375 8.25 C-1.31777344 8.95640625 -1.69804688 9.6628125 -2.08984375 10.390625 C-2.39019531 10.92171875 -2.69054688 11.4528125 -3 12 C-2.01 13.485 -2.01 13.485 -1 15 C-0.875 17.6875 -0.875 17.6875 -1 20 C-3.475 19.01 -3.475 19.01 -6 18 C-5.67 18.66 -5.34 19.32 -5 20 C-4.86584528 22.6723621 -4.95681459 25.32250488 -5 28 C-6.98 28.99 -6.98 28.99 -9 30 C-9.85210328 19.13568319 -5.72079621 9.07355793 0 0 Z " fill="#387FF0" transform="translate(47,236)"/>
<path d="M0 0 C6.56214414 -0.35649475 10.96194383 0.1518603 17 3 C19.32817964 3.36760731 21.6618385 3.70241581 24 4 C25.4540625 4.495 25.4540625 4.495 26.9375 5 C30.6534437 6.21336937 34.11506079 6.59810974 38 7 C38 7.99 38 8.98 38 10 C38.64066406 10.02578125 39.28132813 10.0515625 39.94140625 10.078125 C46.0589484 10.4792753 49.9125022 11.57146888 55 15 C53 16 53 16 50.84448242 15.34570312 C49.96123291 14.99443359 49.0779834 14.64316406 48.16796875 14.28125 C41.97627845 11.93403374 35.71308838 10.17888185 29.3125 8.5 C28.18215332 8.19956787 27.05180664 7.89913574 25.88720703 7.58959961 C17.27853129 5.31061576 8.65302636 3.10443692 0 1 C0 0.67 0 0.34 0 0 Z " fill="#548BE7" transform="translate(48,165)"/>
<path d="M0 0 C0.33 0 0.66 0 1 0 C1.02505615 0.70495605 1.0501123 1.40991211 1.07592773 2.13623047 C1.19318042 5.38261447 1.3153115 8.62879817 1.4375 11.875 C1.47681641 12.98359375 1.51613281 14.0921875 1.55664062 15.234375 C1.80984219 21.8565699 2.24101949 28.41596045 3 35 C4.32 35.33 5.64 35.66 7 36 C6.67 38.64 6.34 41.28 6 44 C-2.00319861 35.99680139 -1.17910033 19.93997958 -1.19018555 9.46142578 C-1.15794904 5.98059151 -1.11143157 3.33429471 0 0 Z " fill="#4382E6" transform="translate(254,239)"/>
<path d="M0 0 C2.89762005 2.45883758 3.8976495 4.87625073 5.125 8.4375 C5.45757812 9.38496094 5.79015625 10.33242187 6.1328125 11.30859375 C7.35051758 15.08786763 8.12671509 18.35258395 8.1328125 22.3359375 C8.13474609 23.56183594 8.13474609 23.56183594 8.13671875 24.8125 C8.13285156 25.658125 8.12898437 26.50375 8.125 27.375 C8.12886719 28.21289062 8.13273438 29.05078125 8.13671875 29.9140625 C8.12968189 34.38950693 7.90387448 38.59540529 7 43 C6.67 43 6.34 43 6 43 C6 34.09 6 25.18 6 16 C5.34 16 4.68 16 4 16 C3.81824219 15.14728516 3.81824219 15.14728516 3.6328125 14.27734375 C2.58677946 9.45754536 1.40795516 4.7267066 0 0 Z " fill="#4584E5" transform="translate(139,224)"/>
<path d="M0 0 C0.99 0.33 1.98 0.66 3 1 C-14.94019934 19.20930233 -14.94019934 19.20930233 -21 22 C-21 21.34 -21 20.68 -21 20 C-20.34 20 -19.68 20 -19 20 C-18.95875 19.2575 -18.9175 18.515 -18.875 17.75 C-17.63498112 13.8527978 -15.51756632 12.89948581 -12 11 C-11.01 11 -10.02 11 -9 11 C-8.67 9.68 -8.34 8.36 -8 7 C-7.01 7 -6.02 7 -5 7 C-5 5.68 -5 4.36 -5 3 C-4.360625 2.87625 -3.72125 2.7525 -3.0625 2.625 C-2.381875 2.41875 -1.70125 2.2125 -1 2 C-0.67 1.34 -0.34 0.68 0 0 Z " fill="#457EEA" transform="translate(137,284)"/>
<path d="M0 0 C-1.09957031 0.556875 -2.19914062 1.11375 -3.33203125 1.6875 C-12.11473438 6.19866541 -20.23948171 10.84857406 -28 17 C-28.33 16.34 -28.66 15.68 -29 15 C-28.34 15 -27.68 15 -27 15 C-27 13.35 -27 11.7 -27 10 C-20.4368932 7.09708738 -20.4368932 7.09708738 -17.75 6.5 C-15.90216034 6.1347757 -15.90216034 6.1347757 -14.703125 4.609375 C-12.62241594 2.64320038 -10.65314145 1.80809808 -8 0.75 C-6.700625 0.21632812 -6.700625 0.21632812 -5.375 -0.328125 C-3 -1 -3 -1 0 0 Z " fill="#3A7CEB" transform="translate(288,185)"/>
<path d="M0 0 C0 0.66 0 1.32 0 2 C-0.66 2 -1.32 2 -2 2 C-2.66 3.32 -3.32 4.64 -4 6 C-5.65 6 -7.3 6 -9 6 C-9.33 6.99 -9.66 7.98 -10 9 C-11.65 9 -13.3 9 -15 9 C-15.103125 9.61875 -15.20625 10.2375 -15.3125 10.875 C-16 13 -16 13 -19 15 C-19.99 14.67 -20.98 14.34 -22 14 C-7.66448802 0 -7.66448802 0 0 0 Z " fill="#4F88F1" transform="translate(80,209)"/>
<path d="M0 0 C-8.91010518 2.92760599 -17.69597749 5.53972011 -26.9140625 7.32421875 C-30.05058218 7.93955609 -30.05058218 7.93955609 -33.1484375 9.14453125 C-36.03358585 10.01007576 -37.24158214 10.06092995 -40 9 C-34.01287321 5.88548455 -28.45590618 4.39173836 -21.7890625 3.4296875 C-18.41966565 2.91059275 -15.25579131 2.00178194 -12 1 C-4.16874463 -1.3033104 -4.16874463 -1.3033104 0 0 Z " fill="#4480E7" transform="translate(360,163)"/>
<path d="M0 0 C5.3820598 -0.35880399 5.3820598 -0.35880399 7.9375 1.125 C9.52513015 3.92670027 8.74070176 5.96985644 8 9 C10.475 10.98 10.475 10.98 13 13 C12.67 13.99 12.34 14.98 12 16 C7.49486569 11.76790414 3.485708 7.11304141 0 2 C0 1.34 0 0.68 0 0 Z " fill="#2D7AF6" transform="translate(7,137)"/>
<path d="M0 0 C4.29 0 8.58 0 13 0 C13 3.96 13 7.92 13 12 C10 8 10 8 10 6 C9.46375 5.731875 8.9275 5.46375 8.375 5.1875 C5.58333333 3.79166667 2.79166667 2.39583333 0 1 C0 0.67 0 0.34 0 0 Z " fill="#D1EDFD" transform="translate(387,0)"/>
<path d="M0 0 C0 0.99 0 1.98 0 3 C-0.99 3.33 -1.98 3.66 -3 4 C-3.33 4.66 -3.66 5.32 -4 6 C-6.61751567 6.67138538 -9.15863423 7.21616601 -11.8125 7.6875 C-12.53759766 7.82994141 -13.26269531 7.97238281 -14.00976562 8.11914062 C-17.68374052 8.79477553 -20.43203331 9.07608489 -24 8 C-23.40461426 7.79318604 -22.80922852 7.58637207 -22.19580078 7.37329102 C-19.50504717 6.43775366 -16.81501718 5.50015265 -14.125 4.5625 C-13.18785156 4.23701172 -12.25070312 3.91152344 -11.28515625 3.57617188 C-9.94130859 3.10727539 -9.94130859 3.10727539 -8.5703125 2.62890625 C-7.74289551 2.34088135 -6.91547852 2.05285645 -6.06298828 1.75610352 C-1.27155312 0 -1.27155312 0 0 0 Z " fill="#C3E2FC" transform="translate(372,158)"/>
<path d="M0 0 C3.96 0 7.92 0 12 0 C9.31158141 2.25245881 7.35358125 3.88213958 4 5 C2.87483915 6.83284443 2.87483915 6.83284443 2 9 C1.34 10.32 0.68 11.64 0 13 C0 8.71 0 4.42 0 0 Z " fill="#D0EEFE" transform="translate(0,0)"/>
<path d="M0 0 C0 0.33 0 0.66 0 1 C-4.62 1.33 -9.24 1.66 -14 2 C-14 2.66 -14 3.32 -14 4 C-19.36439644 6.68219822 -23.01006953 7.3152595 -29 7 C-24.97222928 4.31481952 -20.72264561 2.89030284 -16.1875 1.25 C-15.29740234 0.90839844 -14.40730469 0.56679687 -13.49023438 0.21484375 C-8.32978113 -1.64429656 -5.1679984 -2.63098101 0 0 Z " fill="#4A81E9" transform="translate(110,202)"/>
<path d="M0 0 C0 0.66 0 1.32 0 2 C-1.30324219 2.47179687 -1.30324219 2.47179687 -2.6328125 2.953125 C-8.55322099 5.15175545 -13.90007902 7.20470997 -19 11 C-20.38615406 11.93123863 -21.78263557 12.84723513 -23.1875 13.75 C-23.84105469 14.17796875 -24.49460937 14.6059375 -25.16796875 15.046875 C-27 16 -27 16 -30 16 C-24.97919139 10.36291885 -18.91139442 7.23288596 -12.1875 4.0625 C-10.91459106 3.4603064 -10.91459106 3.4603064 -9.6159668 2.84594727 C-3.41376875 0 -3.41376875 0 0 0 Z " fill="#5387E4" transform="translate(296,200)"/>
<path d="M0 0 C2.2808887 3.42133306 4.22938211 6.9504047 6.1875 10.5625 C6.56841797 11.24763672 6.94933594 11.93277344 7.34179688 12.63867188 C8.2905685 14.39329671 9.15257261 16.19424732 10 18 C9.67 18.66 9.34 19.32 9 20 C7.16064138 17.87996003 5.32843267 15.75442773 3.5 13.625 C2.71302734 12.72007812 2.71302734 12.72007812 1.91015625 11.796875 C-2 7.2265625 -2 7.2265625 -2 5 C-1.34 4.67 -0.68 4.34 0 4 C0 2.68 0 1.36 0 0 Z " fill="#4783E4" transform="translate(246,260)"/>
<path d="M0 0 C1.98 0 3.96 0 6 0 C6.33 0.99 6.66 1.98 7 3 C9.00016466 4.20882096 9.00016466 4.20882096 11 5 C10.67 5.66 10.34 6.32 10 7 C10.99 6.67 11.98 6.34 13 6 C14.5625 8.8125 14.5625 8.8125 16 12 C15.67 12.99 15.34 13.98 15 15 C14.38125 14.175 13.7625 13.35 13.125 12.5 C9.91800884 8.60513248 5.99931612 5.69290652 2.01171875 2.63671875 C1.34785156 2.09660156 0.68398437 1.55648437 0 1 C0 0.67 0 0.34 0 0 Z " fill="#4282EA" transform="translate(133,196)"/>
<path d="M0 0 C0.66 0.33 1.32 0.66 2 1 C0 4 0 4 -3.0625 5 C-4.031875 5.33 -5.00125 5.66 -6 6 C-6.33 6.99 -6.66 7.98 -7 9 C-9.27208411 10.51472274 -11.56019185 11.78009593 -14 13 C-16.125 12.0625 -16.125 12.0625 -18 11 C-4.41473988 2.25433526 -4.41473988 2.25433526 0 0 Z " fill="#4E87EB" transform="translate(332,23)"/>
<path d="M0 0 C4.59390692 4.59390692 4.62624613 11.72931215 5.4375 17.87890625 C5.97040501 20.8357889 6.86582297 23.23485766 8 26 C8.125 29.3125 8.125 29.3125 8 32 C1.83182995 22.74774493 1.05460891 10.80974132 0 0 Z " fill="#4882EC" transform="translate(213,192)"/>
<path d="M0 0 C0.12375 0.598125 0.2475 1.19625 0.375 1.8125 C0.95475985 4.26231348 0.95475985 4.26231348 3 7 C-2.445 13.435 -2.445 13.435 -8 20 C-8.33 19.34 -8.66 18.68 -9 18 C-7.77807046 15.4528377 -6.50755379 13.02011652 -5.125 10.5625 C-2.23058677 5.43573101 -2.23058677 5.43573101 0 0 Z " fill="#5486DF" transform="translate(153,260)"/>
<path d="M0 0 C1.65 0 3.3 0 5 0 C0.81978173 3.64083526 -3.85188457 6.88869424 -9 9 C-9.99 8.67 -10.98 8.34 -12 8 C-11.505 7.566875 -11.01 7.13375 -10.5 6.6875 C-8.66781808 5.00259517 -8.66781808 5.00259517 -9 2 C-6.33333333 2 -3.66666667 2 -1 2 C-0.67 1.34 -0.34 0.68 0 0 Z " fill="#307BF5" transform="translate(69,335)"/>
<path d="M0 0 C-0.89138672 0.43699219 -0.89138672 0.43699219 -1.80078125 0.8828125 C-7.54338044 3.72285378 -13.169435 6.7162865 -18.75 9.86328125 C-21 11 -21 11 -23 11 C-23 10.34 -23 9.68 -23 9 C-22.01 9 -21.02 9 -20 9 C-20 8.34 -20 7.68 -20 7 C-16.63316085 4.56839395 -15.26649636 4 -11 4 C-10.773125 3.38125 -10.54625 2.7625 -10.3125 2.125 C-7.51616068 -2.40240652 -4.26928276 -2.41623237 0 0 Z " fill="#D8EFFE" transform="translate(355,12)"/>
<path d="M0 0 C2.58678507 3.08650492 3.8084575 5.91720497 5 9.75 C6.13956431 13.3527764 7.31892018 16.87830497 8.75 20.375 C9.95443356 23.86785733 10.27414805 26.34469266 10 30 C9.34 29.67 8.68 29.34 8 29 C7.5078125 27.03125 7.5078125 27.03125 7.125 24.5 C6.30819618 19.96220099 4.91620484 16.1883886 2.953125 12.03515625 C1.00400643 7.87330881 0 4.6032733 0 0 Z " fill="#5287EA" transform="translate(175,125)"/>
<path d="M0 0 C4.40388598 1.54302823 8.13184293 3.87939185 12 6.4375 C13.20787957 7.22855788 14.41620507 8.01893532 15.625 8.80859375 C16.19605469 9.18226074 16.76710938 9.55592773 17.35546875 9.94091797 C19.53909185 11.34717643 21.76226996 12.6819431 24 14 C23.34 14.66 22.68 15.32 22 16 C22 15.34 22 14.68 22 14 C19.02588876 12.76078698 16.14737182 11.69941596 13 11 C13 10.34 13 9.68 13 9 C12.34 9 11.68 9 11 9 C11 8.34 11 7.68 11 7 C10.01 7 9.02 7 8 7 C8 6.34 8 5.68 8 5 C7.13375 4.814375 7.13375 4.814375 6.25 4.625 C3.97664233 3.99351176 2.0746471 3.11141809 0 2 C0 1.34 0 0.68 0 0 Z " fill="#447FE9" transform="translate(74,28)"/>
<path d="M0 0 C0.33 0 0.66 0 1 0 C2.66666667 10 4.33333333 20 6 30 C5.01 29.67 4.02 29.34 3 29 C0.48990472 22.99462731 0.60072783 15.84722977 0.375 9.4375 C0.33632812 8.52419922 0.29765625 7.61089844 0.2578125 6.66992188 C0.16469748 4.44680076 0.07887834 2.22366387 0 0 Z " fill="#CAE7FD" transform="translate(212,188)"/>
<path d="M0 0 C6.75 0.875 6.75 0.875 9 2 C9 2.99 9 3.98 9 5 C10.65 5 12.3 5 14 5 C14.33 5.99 14.66 6.98 15 8 C17.01508358 8.73323796 17.01508358 8.73323796 19 9 C19 9.66 19 10.32 19 11 C14.60616294 9.40376856 10.71004193 7.21975667 6.6875 4.875 C6.04232422 4.50246094 5.39714844 4.12992187 4.73242188 3.74609375 C3.15324055 2.83367787 1.57638136 1.91724491 0 1 C0 0.67 0 0.34 0 0 Z " fill="#4982E5" transform="translate(317,330)"/>
<path d="M0 0 C0.33 0.66 0.66 1.32 1 2 C-0.34659841 4.83494402 -1.39251247 6.61341702 -4.0625 8.3125 C-6 9 -6 9 -8 9 C-9.7143618 10.95927063 -11.38405168 12.95880212 -13 15 C-13.99 14.34 -14.98 13.68 -16 13 C-12.25 10 -12.25 10 -10 10 C-9.67 9.01 -9.34 8.02 -9 7 C-6.93359375 5.17578125 -6.93359375 5.17578125 -4.4375 3.3125 C-3.61121094 2.68988281 -2.78492187 2.06726563 -1.93359375 1.42578125 C-1.29550781 0.95527344 -0.65742187 0.48476563 0 0 Z " fill="#DEF1FE" transform="translate(122,301)"/>
<path d="M0 0 C0.33 0 0.66 0 1 0 C1.08772579 4.33320395 1.14063579 8.66617668 1.1875 13 C1.21263672 14.22074219 1.23777344 15.44148437 1.26367188 16.69921875 C1.3192103 23.5489579 0.95922969 28.78639434 -2 35 C-3.04434019 31.77895779 -2.90282766 29.7130457 -2.1015625 26.4453125 C-0.8929211 20.91400067 -0.56534146 15.5217966 -0.375 9.875 C-0.33632812 8.91851562 -0.29765625 7.96203125 -0.2578125 6.9765625 C-0.16479872 4.65121801 -0.07896229 2.32585665 0 0 Z " fill="#D9F0FD" transform="translate(188,171)"/>
<path d="M0 0 C0.5775 0.226875 1.155 0.45375 1.75 0.6875 C-0.17576115 3.12679746 -2.05090595 5.48840595 -4.25 7.6875 C-4.25 6.6975 -4.25 5.7075 -4.25 4.6875 C-7.41605307 6.79820205 -8.44587357 8.42289027 -10.25 11.6875 C-11.0625 10 -11.0625 10 -11.25 7.6875 C-9.0625 5.125 -9.0625 5.125 -6.25 2.6875 C-5.2290625 1.759375 -5.2290625 1.759375 -4.1875 0.8125 C-2.25 -0.3125 -2.25 -0.3125 0 0 Z " fill="#3980E9" transform="translate(12.25,1.3125)"/>
<path d="M0 0 C1.485 0.99 1.485 0.99 3 2 C3.99 1.34 4.98 0.68 6 0 C6.99 0.33 7.98 0.66 9 1 C8.04367001 2.29315061 7.08486149 3.58446853 6.125 4.875 C5.59132813 5.59429687 5.05765625 6.31359375 4.5078125 7.0546875 C3 9 3 9 1 11 C0.63890458 9.35567294 0.28629924 7.7094792 -0.0625 6.0625 C-0.25972656 5.14597656 -0.45695312 4.22945312 -0.66015625 3.28515625 C-0.77230469 2.53105469 -0.88445312 1.77695313 -1 1 C-0.67 0.67 -0.34 0.34 0 0 Z " fill="#EAF6FE" transform="translate(257,216)"/>
<path d="M0 0 C0.33 0 0.66 0 1 0 C1.125 7.625 1.125 7.625 0 11 C0.66 11.33 1.32 11.66 2 12 C0.35 15.3 -1.3 18.6 -3 22 C-3.66 22 -4.32 22 -5 22 C-4.72285156 20.91460937 -4.44570312 19.82921875 -4.16015625 18.7109375 C-3.7941437 17.26565719 -3.4282654 15.82034288 -3.0625 14.375 C-2.88009766 13.66214844 -2.69769531 12.94929688 -2.50976562 12.21484375 C-1.48683201 8.16030687 -0.62042633 4.14052941 0 0 Z " fill="#BCDFFB" transform="translate(146,261)"/>
<path d="M0 0 C3.18884231 4.78326347 3.52978081 11.30485628 3 17 C2.01 17.99 1.02 18.98 0 20 C0 13.4 0 6.8 0 0 Z " fill="#FBFDF9" transform="translate(0,119)"/>
<path d="M0 0 C0.33 0 0.66 0 1 0 C1 1.65 1 3.3 1 5 C1.99 5 2.98 5 4 5 C4 5.66 4 6.32 4 7 C1.69 7 -0.62 7 -3 7 C-3.33 8.32 -3.66 9.64 -4 11 C-5.32 10.67 -6.64 10.34 -8 10 C-6.69118353 8.33043913 -5.37785174 6.66441696 -4.0625 5 C-2.96615234 3.6078125 -2.96615234 3.6078125 -1.84765625 2.1875 C-1.23792969 1.465625 -0.62820312 0.74375 0 0 Z " fill="#4484EF" transform="translate(248,89)"/>
<path d="M0 0 C1.9375 0.375 1.9375 0.375 4 1 C4.33 1.66 4.66 2.32 5 3 C5.99 3.33 6.98 3.66 8 4 C8 5.98 8 7.96 8 10 C8.66 10 9.32 10 10 10 C10.33 12.64 10.66 15.28 11 18 C8.26686614 16.63343307 8.0225634 14.76914453 6.92578125 12.046875 C5.58591113 9.08446174 3.85179672 6.42292282 2.0859375 3.69921875 C1 2 1 2 0 0 Z " fill="#CDE9FD" transform="translate(348,230)"/>
<path d="M0 0 C0.66 0.33 1.32 0.66 2 1 C2 1.66 2 2.32 2 3 C2.66 3 3.32 3 4 3 C4.33 3.66 4.66 4.32 5 5 C5.66 4.34 6.32 3.68 7 3 C7.99 3.33 8.98 3.66 10 4 C9.34 4 8.68 4 8 4 C7.67 4.99 7.34 5.98 7 7 C4.9375 8.1875 4.9375 8.1875 3 9 C3 8.01 3 7.02 3 6 C0.03 5.505 0.03 5.505 -3 5 C-3 4.01 -3 3.02 -3 2 C-2.01 1.34 -1.02 0.68 0 0 Z " fill="#2E7EF2" transform="translate(374,146)"/>
<path d="M0 0 C0.33 0.66 0.66 1.32 1 2 C1.66 2 2.32 2 3 2 C3.3690205 11.41002278 3.3690205 11.41002278 1 16 C0.67 16 0.34 16 0 16 C0.01160156 15.36191406 0.02320313 14.72382813 0.03515625 14.06640625 C0.04417969 13.24011719 0.05320313 12.41382813 0.0625 11.5625 C0.07990234 10.32693359 0.07990234 10.32693359 0.09765625 9.06640625 C0.23267348 7.00836062 0.23267348 7.00836062 -1 6 C-1.125 3.5 -1.125 3.5 -1 1 C-0.67 0.67 -0.34 0.34 0 0 Z " fill="#397BF8" transform="translate(179,208)"/>
<path d="M0 0 C1.32 0 2.64 0 4 0 C4 0.66 4 1.32 4 2 C4.99 1.67 5.98 1.34 7 1 C7 1.66 7 2.32 7 3 C7.66 3 8.32 3 9 3 C9.33 3.66 9.66 4.32 10 5 C11.64363134 5.72159424 13.31050386 6.39351421 15 7 C14.67 7.99 14.34 8.98 14 10 C14.66 10 15.32 10 16 10 C15.67 10.66 15.34 11.32 15 12 C12.87362766 10.37676928 10.74886564 8.7515047 8.625 7.125 C8.02171875 6.66480469 7.4184375 6.20460938 6.796875 5.73046875 C4.41748609 3.90627059 2.12258788 2.12258788 0 0 Z " fill="#D2EBFD" transform="translate(102,45)"/>
<path d="M0 0 C-1.40377592 4.84940773 -3.51755485 9.09973953 -5.87890625 13.53515625 C-7.01590124 16.03496057 -7.57106207 18.29624521 -8 21 C-8.33 21 -8.66 21 -9 21 C-9.19384745 16.52813989 -8.62032236 13.04657057 -7.1875 8.8125 C-6.85105469 7.78769531 -6.51460937 6.76289063 -6.16796875 5.70703125 C-4.80300012 2.54340829 -3.69838177 0 0 0 Z " fill="#DAF1FE" transform="translate(48,234)"/>
<path d="M0 0 C3 1 3 1 4.6875 3.8125 C6 7 6 7 6 11 C3.69 10.34 1.38 9.68 -1 9 C-0.67 6.03 -0.34 3.06 0 0 Z " fill="#3A80EF" transform="translate(394,5)"/>
<path d="M0 0 C2.99332739 0.9977758 3.94766315 1.7522025 6 4 C6.66 3.01 7.32 2.02 8 1 C8.66 3.97 9.32 6.94 10 10 C7.67578125 9.78515625 7.67578125 9.78515625 5 9 C3.41796875 6.93359375 3.41796875 6.93359375 2.1875 4.4375 C1.76855469 3.61121094 1.34960938 2.78492188 0.91796875 1.93359375 C0.61503906 1.29550781 0.31210938 0.65742188 0 0 Z " fill="#387BE9" transform="translate(237,255)"/>
<path d="M0 0 C7.40315583 1.79354806 14.72764611 3.73141173 22 6 C22 6.33 22 6.66 22 7 C20.54119891 6.85892253 19.08296449 6.71197585 17.625 6.5625 C16.81289063 6.48128906 16.00078125 6.40007812 15.1640625 6.31640625 C13 6 13 6 11 5 C8.69879699 4.80680199 6.40044368 4.6828131 4.09375 4.57421875 C2 4 2 4 0.71875 1.95703125 C0.36296875 0.98830078 0.36296875 0.98830078 0 0 Z " fill="#D3EEFD" transform="translate(34,161)"/>
<path d="M0 0 C0.33 0 0.66 0 1 0 C1.25711129 7.19911624 1.15137665 14.38031638 -4 20 C-3.42978625 13.04339229 -1.98697306 6.68572695 0 0 Z " fill="#4A82EE" transform="translate(218,139)"/>
<path d="M0 0 C1.32 0.66 2.64 1.32 4 2 C2.61217515 2.8466034 1.21430603 3.67675339 -0.1875 4.5 C-0.96480469 4.9640625 -1.74210937 5.428125 -2.54296875 5.90625 C-5.24103386 7.10729647 -7.0806982 7.20741043 -10 7 C-10 6.01 -10 5.02 -10 4 C-9.04287109 3.81824219 -9.04287109 3.81824219 -8.06640625 3.6328125 C-7.24011719 3.46523438 -6.41382813 3.29765625 -5.5625 3.125 C-4.73878906 2.96257812 -3.91507813 2.80015625 -3.06640625 2.6328125 C-2.38449219 2.42398437 -1.70257813 2.21515625 -1 2 C-0.67 1.34 -0.34 0.68 0 0 Z " fill="#3C81F3" transform="translate(54,343)"/>
<path d="M0 0 C-1.12029017 1.48273699 -2.24638618 2.96108886 -3.375 4.4375 C-4.00148438 5.26121094 -4.62796875 6.08492187 -5.2734375 6.93359375 C-7 9 -7 9 -9 10 C-9 8.68 -9 7.36 -9 6 C-8.34 6 -7.68 6 -7 6 C-6.9175 5.21625 -6.835 4.4325 -6.75 3.625 C-6 1 -6 1 -4.0625 -0.375 C-2 -1 -2 -1 0 0 Z " fill="#317BEE" transform="translate(393,139)"/>
<path d="M0 0 C0.66 0.33 1.32 0.66 2 1 C0.47005208 2.23697917 -1.05989583 3.47395833 -2.58984375 4.7109375 C-4.13266437 5.9666391 -4.13266437 5.9666391 -5 8 C-8.60963407 9.39463134 -12.19331304 10.32823171 -16 11 C-12.00255759 7.53554991 -7.65897385 4.9279507 -3.109375 2.26953125 C-1.08819514 1.1686003 -1.08819514 1.1686003 0 0 Z " fill="#D1ECFE" transform="translate(90,325)"/>
<path d="M0 0 C1.32 0 2.64 0 4 0 C5.65 4.62 7.3 9.24 9 14 C6 13 6 13 4.39453125 10.05859375 C3.87246094 8.86363281 3.35039062 7.66867187 2.8125 6.4375 C2.28269531 5.23996094 1.75289062 4.04242188 1.20703125 2.80859375 C0.80871094 1.88175781 0.41039062 0.95492188 0 0 Z " fill="#C0E1FB" transform="translate(251,270)"/>
<path d="M0 0 C1.38087404 3.83576122 0.94284862 7.08355188 0 11 C-1.31647119 11.69937532 -2.65022151 12.36729133 -4 13 C-4.81584568 16.05908413 -4.81584568 16.05908413 -5 19 C-5.66 19 -6.32 19 -7 19 C-5.74312235 14.0772292 -4.03807629 9.62558355 -1.90234375 5.015625 C-0.9010417 2.8681339 -0.9010417 2.8681339 0 0 Z " fill="#D2EEFE" transform="translate(180,221)"/>
<path d="M0 0 C0.66 0 1.32 0 2 0 C1.75 2.875 1.75 2.875 1 6 C-1 7.25 -1 7.25 -3 8 C-3.33 8.66 -3.66 9.32 -4 10 C-4.66 10 -5.32 10 -6 10 C-6 10.66 -6 11.32 -6 12 C-6.66 12 -7.32 12 -8 12 C-7.67 10.68 -7.34 9.36 -7 8 C-6.34 8 -5.68 8 -5 8 C-4.731875 7.4225 -4.46375 6.845 -4.1875 6.25 C-2.97070811 3.94449957 -1.69666121 1.97943808 0 0 Z " fill="#518BEA" transform="translate(56,224)"/>
<path d="M0 0 C-0.50603992 2.16874252 -0.99983813 3.99967627 -2 6 C-7.75 5.25 -7.75 5.25 -10 3 C-6.27034861 0.96564469 -4.33094958 0 0 0 Z " fill="#3881F1" transform="translate(114,178)"/>
<path d="M0 0 C2.31 0.33 4.62 0.66 7 1 C7 1.99 7 2.98 7 4 C8.32 4 9.64 4 11 4 C12.75 6 12.75 6 14 8 C13.01 8.495 13.01 8.495 12 9 C9.43359375 7.63671875 9.43359375 7.63671875 6.4375 5.6875 C4.95056641 4.73423828 4.95056641 4.73423828 3.43359375 3.76171875 C1 2 1 2 0 0 Z " fill="#4781ED" transform="translate(304,321)"/>
<path d="M0 0 C1.65 0 3.3 0 5 0 C1.9703348 2.44814179 -1.07549599 4.09452853 -4.625 5.6875 C-5.58664062 6.12449219 -6.54828125 6.56148438 -7.5390625 7.01171875 C-10 8 -10 8 -12 8 C-12 7.34 -12 6.68 -12 6 C-11.34 6 -10.68 6 -10 6 C-10 5.34 -10 4.68 -10 4 C-6.38026598 2.68373308 -3.90432869 2 0 2 C0 1.34 0 0.68 0 0 Z " fill="#D7F2FE" transform="translate(373,0)"/>
<path d="M0 0 C0.33 0 0.66 0 1 0 C1 4.62 1 9.24 1 14 C-0.98 14.99 -0.98 14.99 -3 16 C-2.01 10.72 -1.02 5.44 0 0 Z " fill="#D2EAFE" transform="translate(399,117)"/>
<path d="M0 0 C0.66 0.33 1.32 0.66 2 1 C-0.39332548 4.9888758 -2.68029327 5.62137019 -7 7 C-7.99 8.485 -7.99 8.485 -9 10 C-10.32 9.67 -11.64 9.34 -13 9 C-11.39612733 7.8745809 -9.79189084 6.74968028 -8.1875 5.625 C-7.29417969 4.99851562 -6.40085937 4.37203125 -5.48046875 3.7265625 C-3.66732122 2.46449761 -1.83811789 1.22541192 0 0 Z " fill="#4D85ED" transform="translate(312,35)"/>
<path d="M0 0 C3 1 3 1 4 3 C4.99 3.33 5.98 3.66 7 4 C7 4.99 7 5.98 7 7 C7.99 7.33 8.98 7.66 10 8 C11.6875 10.0625 11.6875 10.0625 13 12 C10 12 10 12 7.51953125 9.8828125 C6.62621094 8.97273438 5.73289062 8.06265625 4.8125 7.125 C3.91144531 6.22007812 3.01039063 5.31515625 2.08203125 4.3828125 C0 2 0 2 0 0 Z " fill="#4A7EE5" transform="translate(260,283)"/>
<path d="M0 0 C1.32 0.66 2.64 1.32 4 2 C3.34 5.3 2.68 8.6 2 12 C1.67 12 1.34 12 1 12 C1 9.69 1 7.38 1 5 C0.01 4.67 -0.98 4.34 -2 4 C-1.34 2.68 -0.68 1.36 0 0 Z " fill="#367DF0" transform="translate(139,272)"/>
<path d="M0 0 C2.97 0.99 5.94 1.98 9 3 C5.29847322 3.92538169 4.36541838 4.08174162 1 3 C1 3.66 1 4.32 1 5 C-0.98 5.33 -2.96 5.66 -5 6 C-5 5.34 -5 4.68 -5 4 C-4.01 3.34 -3.02 2.68 -2 2 C-1.34 1.34 -0.68 0.68 0 0 Z " fill="#3C80EF" transform="translate(301,202)"/>
<path d="M0 0 C2.6274838 1.28680869 5.25196683 2.57917678 7.875 3.875 C8.62136719 4.23980469 9.36773437 4.60460937 10.13671875 4.98046875 C10.85214844 5.33496094 11.56757812 5.68945312 12.3046875 6.0546875 C12.96452637 6.37937012 13.62436523 6.70405273 14.30419922 7.03857422 C16 8 16 8 18 10 C14.28111761 9.49287967 11.26545761 8.88391785 8 7 C8 6.34 8 5.68 8 5 C6.865625 4.731875 5.73125 4.46375 4.5625 4.1875 C3.386875 3.795625 2.21125 3.40375 1 3 C0.67 2.01 0.34 1.02 0 0 Z " fill="#417DE4" transform="translate(46,12)"/>
<path d="M0 0 C0.66 0.33 1.32 0.66 2 1 C-1.78409618 4.44008744 -4.97835137 5.99567027 -10 7 C-12.21484375 6.54296875 -12.21484375 6.54296875 -14 6 C-11.71220962 4.96959833 -9.42048864 3.95047982 -7.125 2.9375 C-6.47402344 2.64294922 -5.82304687 2.34839844 -5.15234375 2.04492188 C-3.45989459 1.30338487 -1.73131425 0.64560999 0 0 Z " fill="#D0EAFE" transform="translate(296,181)"/>
<path d="M0 0 C-0.97983756 2.44959389 -1.61556805 3.75652643 -3.875 5.1875 C-7.87401575 6.71653543 -7.87401575 6.71653543 -10 7 C-10.66 6.34 -11.32 5.68 -12 5 C-10.37750059 4.16180842 -8.75191503 3.3295884 -7.125 2.5 C-6.22007813 2.0359375 -5.31515625 1.571875 -4.3828125 1.09375 C-2 0 -2 0 0 0 Z " fill="#D8EDFD" transform="translate(64,342)"/>
<path d="M0 0 C4.35589692 3.52620227 5.75505655 8.59714206 6.6875 13.9375 C6.790625 14.948125 6.89375 15.95875 7 17 C6.34 16.67 5.68 16.34 5 16 C4.59270772 13.67843403 4.25561323 11.3431213 4 9 C3.34 9 2.68 9 2 9 C0.50178941 5.62902617 0 3.79557881 0 0 Z " fill="#4D8AE6" transform="translate(354,240)"/>
<path d="M0 0 C0.33 0 0.66 0 1 0 C0.42085333 6.01326751 -0.22337945 12.00892722 -1 18 C-1.33 18 -1.66 18 -2 18 C-2.05382106 15.37472811 -2.09358313 12.75055287 -2.125 10.125 C-2.14175781 9.37863281 -2.15851563 8.63226563 -2.17578125 7.86328125 C-2.1933959 5.90805539 -2.10320189 3.95257979 -2 2 C-1.34 1.34 -0.68 0.68 0 0 Z " fill="#D3EDFE" transform="translate(214,150)"/>
<path d="M0 0 C0.66 0.66 1.32 1.32 2 2 C-0.64 1.67 -3.28 1.34 -6 1 C-6 1.66 -6 2.32 -6 3 C-7.65 3 -9.3 3 -11 3 C-10 0 -10 0 -8.3125 -1.3125 C-5.00715644 -2.29516971 -3.10272701 -1.34901174 0 0 Z " fill="#3A80EE" transform="translate(26,2)"/>
<path d="M0 0 C1.79378179 2.69067269 2.97313958 5.08578257 4.1875 8.0625 C4.55230469 8.94035156 4.91710937 9.81820312 5.29296875 10.72265625 C6 13 6 13 5 15 C4.01 14.67 3.02 14.34 2 14 C1.66179834 12.4176994 1.32964061 10.83410625 1 9.25 C0.814375 8.36828125 0.62875 7.4865625 0.4375 6.578125 C0 4 0 4 0 0 Z " fill="#D1EDFD" transform="translate(218,218)"/>
<path d="M0 0 C-4.79554278 2.63754853 -10.63672638 5.67968596 -16.2421875 4.546875 C-17.11230469 4.27617187 -17.11230469 4.27617187 -18 4 C-15.75438718 3.13237686 -13.50473745 2.2807897 -11.25 1.4375 C-10.61578125 1.19064453 -9.9815625 0.94378906 -9.328125 0.68945312 C-5.88990821 -0.58197079 -3.47831118 -1.46686355 0 0 Z " fill="#C7E2FE" transform="translate(316,176)"/>
<path d="M0 0 C1.98 0 3.96 0 6 0 C6 1.32 6 2.64 6 4 C5.34 4 4.68 4 4 4 C3.896875 4.639375 3.79375 5.27875 3.6875 5.9375 C3.460625 6.618125 3.23375 7.29875 3 8 C2.01 8.33 1.02 8.66 0 9 C0.33 8.01 0.66 7.02 1 6 C1.66 6 2.32 6 3 6 C2.67 5.01 2.34 4.02 2 3 C1.01 3.495 1.01 3.495 0 4 C0 2.68 0 1.36 0 0 Z " fill="#307BF3" transform="translate(112,300)"/>
<path d="M0 0 C2.49560036 2.24460607 3.8705484 4.38520597 5.25 7.4375 C5.60578125 8.19933594 5.9615625 8.96117187 6.328125 9.74609375 C7.08338373 12.27972334 6.87351072 13.54185126 6 16 C0.44419134 5.62642369 0.44419134 5.62642369 0 0 Z " fill="#4B84E5" transform="translate(221,224)"/>
<path d="M0 0 C-3.06975587 2.04650391 -5.69084152 2.99704565 -9.1875 4.125 C-10.27417969 4.47820312 -11.36085938 4.83140625 -12.48046875 5.1953125 C-13.31191406 5.46085938 -14.14335938 5.72640625 -15 6 C-15 5.01 -15 4.02 -15 3 C-9.9249188 0.8249652 -5.52699 -0.157914 0 0 Z " fill="#DEF5FE" transform="translate(95,203)"/>
<path d="M0 0 C3.49234244 -0.09978121 6.59437148 0.22157062 10 1 C10.33 2.32 10.66 3.64 11 5 C10.01 5.495 10.01 5.495 9 6 C6.8359375 5.00390625 6.8359375 5.00390625 4.375 3.5625 C3.55773437 3.08941406 2.74046875 2.61632812 1.8984375 2.12890625 C1.27195312 1.75636719 0.64546875 1.38382813 0 1 C0 0.67 0 0.34 0 0 Z " fill="#4884ED" transform="translate(22,154)"/>
<path d="M0 0 C4 4.625 4 4.625 4 8 C2.02 8.33 0.04 8.66 -2 9 C-2 8.01 -2 7.02 -2 6 C-1.01 6 -0.02 6 1 6 C0.67 4.02 0.34 2.04 0 0 Z " fill="#3983EF" transform="translate(164,106)"/>
<path d="M0 0 C3.59634744 3.49359465 6.83451967 7.11098131 10 11 C9.01 11.33 8.02 11.66 7 12 C6.731875 11.360625 6.46375 10.72125 6.1875 10.0625 C5.11332248 7.66868314 5.11332248 7.66868314 2 7 C0.35179805 4.39757586 0 3.13751221 0 0 Z " fill="#4B84EA" transform="translate(144,81)"/>
<path d="M0 0 C0.75 1.6875 0.75 1.6875 1 4 C-0.94547207 7.2175115 -2.10182081 8.73462887 -5.75 9.8125 C-6.4925 9.874375 -7.235 9.93625 -8 10 C-6.625 7.5 -6.625 7.5 -5 5 C-4.34 5 -3.68 5 -3 5 C-2.690625 4.360625 -2.38125 3.72125 -2.0625 3.0625 C-1 1 -1 1 0 0 Z " fill="#4A86EC" transform="translate(257,79)"/>
<path d="M0 0 C0.99 0 1.98 0 3 0 C3 4 3 4 1.6875 5.75 C0 7 0 7 -3 7 C-3 5.68 -3 4.36 -3 3 C-2.34 3 -1.68 3 -1 3 C-0.67 2.01 -0.34 1.02 0 0 Z " fill="#247CF7" transform="translate(159,253)"/>
<path d="M0 0 C3.27742098 3.10026309 5.93104837 5.97098894 8 10 C8 10.66 8 11.32 8 12 C7.34 12 6.68 12 6 12 C5.67 10.68 5.34 9.36 5 8 C4.01 8 3.02 8 2 8 C1.34 5.36 0.68 2.72 0 0 Z " fill="#4683E6" transform="translate(346,228)"/>
<path d="M0 0 C0.33 0.66 0.66 1.32 1 2 C0.06425758 4.38614316 -0.92700762 6.67750567 -2 9 C-2.56648302 10.31078583 -3.12919408 11.62321046 -3.6875 12.9375 C-4.120625 13.948125 -4.55375 14.95875 -5 16 C-6.25348607 13.04893565 -6.01044806 12.02593537 -4.78515625 8.984375 C-4.21667969 7.91703125 -3.64820313 6.8496875 -3.0625 5.75 C-2.49660156 4.67234375 -1.93070313 3.5946875 -1.34765625 2.484375 C-0.90292969 1.66453125 -0.45820313 0.8446875 0 0 Z " fill="#4C84E5" transform="translate(178,224)"/>
<path d="M0 0 C4.41889613 1.35021826 6.34345343 3.26115668 9 7 C7.9275 6.67 6.855 6.34 5.75 6 C2.00268399 4.8282249 2.00268399 4.8282249 -2 5 C-2 4.34 -2 3.68 -2 3 C-1.34 3 -0.68 3 0 3 C0 2.01 0 1.02 0 0 Z " fill="#3B81E6" transform="translate(331,215)"/>
<path d="M0 0 C0 0.99 0 1.98 0 3 C-0.99 3.33 -1.98 3.66 -3 4 C-3.33 4.66 -3.66 5.32 -4 6 C-6.31 6 -8.62 6 -11 6 C-3.8 0 -3.8 0 0 0 Z " fill="#DBF0FE" transform="translate(372,158)"/>
<path d="M0 0 C2.34290892 2.48434437 2.97982934 3.77731593 3.29296875 7.234375 C3.25816406 8.39453125 3.22335938 9.5546875 3.1875 10.75 C3.16042969 11.92046875 3.13335937 13.0909375 3.10546875 14.296875 C3.07066406 15.18890625 3.03585938 16.0809375 3 17 C2.67 17 2.34 17 2 17 C-0.29612756 5.47835991 -0.29612756 5.47835991 0 0 Z " fill="#DAF2FF" transform="translate(185,149)"/>
<path d="M0 0 C0.66 0 1.32 0 2 0 C1.03928241 3.23150461 0.30588515 4.75851173 -2.375 6.875 C-5.31409377 8.13461162 -6.07068419 7.90995768 -9 7 C-8.43410156 6.66226563 -7.86820312 6.32453125 -7.28515625 5.9765625 C-6.55167969 5.53054687 -5.81820313 5.08453125 -5.0625 4.625 C-4.33160156 4.18414062 -3.60070312 3.74328125 -2.84765625 3.2890625 C-0.86227728 2.1226016 -0.86227728 2.1226016 0 0 Z " fill="#D4E8FE" transform="translate(382,150)"/>
<path d="M0 0 C1 2 1 2 0.5 3.875 C-1.78838134 7.11687357 -4.44017367 8.25131338 -8 10 C-8.99 10 -9.98 10 -11 10 C-9.625 8.5 -9.625 8.5 -8 7 C-7.34 7 -6.68 7 -6 7 C-6 6.34 -6 5.68 -6 5 C-4.04072937 3.2856382 -2.04119788 1.61594832 0 0 Z " fill="#4D8AEF" transform="translate(273,64)"/>
<path d="M0 0 C2.31 0 4.62 0 7 0 C7 2.31 7 4.62 7 7 C6.566875 6.525625 6.13375 6.05125 5.6875 5.5625 C3.97690387 3.76313043 3.97690387 3.76313043 1 3 C0.67 2.01 0.34 1.02 0 0 Z " fill="#FCFBF7" transform="translate(393,0)"/>
<path d="M0 0 C2.31 0 4.62 0 7 0 C6.67 0.99 6.34 1.98 6 3 C5.01 3.33 4.02 3.66 3 4 C1.33289654 5.49985609 1.33289654 5.49985609 0 7 C0 4.69 0 2.38 0 0 Z " fill="#FCFBF9" transform="translate(0,0)"/>
<path d="M0 0 C2.23960447 2.87949147 4.29864224 5.76742026 6 9 C5.67 9.66 5.34 10.32 5 11 C2.36 8.03 -0.28 5.06 -3 2 C-2.01 1.34 -1.02 0.68 0 0 Z " fill="#618BE0" transform="translate(250,269)"/>
<path d="M0 0 C2.62187494 1.04874998 3.79371361 1.64931313 5.25 4.125 C5.4975 4.74375 5.745 5.3625 6 6 C4.68 5.67 3.36 5.34 2 5 C1.67 5.66 1.34 6.32 1 7 C0.01 6.67 -0.98 6.34 -2 6 C-1.34 4.02 -0.68 2.04 0 0 Z " fill="#3A81ED" transform="translate(340,222)"/>
<path d="M0 0 C0 0.99 0 1.98 0 3 C-1.2065625 3.433125 -1.2065625 3.433125 -2.4375 3.875 C-5.1326468 4.73262568 -5.1326468 4.73262568 -6 7 C-7.98 7 -9.96 7 -12 7 C-10.53092999 4.06185997 -8.40552194 3.6713774 -5.4375 2.375 C-4.42558594 1.92898438 -3.41367187 1.48296875 -2.37109375 1.0234375 C-1.58863281 0.68570312 -0.80617188 0.34796875 0 0 Z " fill="#4E88EB" transform="translate(353,12)"/>
<path d="M0 0 C1.60781893 0.7631861 3.21113138 1.53587058 4.8125 2.3125 C5.70582031 2.74175781 6.59914063 3.17101562 7.51953125 3.61328125 C9.78931933 4.88221789 11.29248171 6.06556898 13 8 C7.25 7.125 7.25 7.125 5 6 C5 5.34 5 4.68 5 4 C2.525 3.01 2.525 3.01 0 2 C0 1.34 0 0.68 0 0 Z " fill="#DAEFFE" transform="translate(326,336)"/>
<path d="M0 0 C1.7936743 1.1217963 3.5848773 2.24754483 5.375 3.375 C6.37273437 4.00148438 7.37046875 4.62796875 8.3984375 5.2734375 C11 7 11 7 13 9 C8.47328804 8.46744565 5.5799445 6.78440128 2 4 C0.82421875 1.86328125 0.82421875 1.86328125 0 0 Z " fill="#DAF2FE" transform="translate(303,321)"/>
<path d="M0 0 C0.9075 0.185625 1.815 0.37125 2.75 0.5625 C5.68314324 0.95734621 7.2644657 0.94691572 10 0 C9.34 1.98 8.68 3.96 8 6 C1.125 2.25 1.125 2.25 0 0 Z " fill="#4182EC" transform="translate(294,314)"/>
<path d="M0 0 C0.66 0 1.32 0 2 0 C2.45375 0.969375 2.9075 1.93875 3.375 2.9375 C4.65786221 6.07079582 4.65786221 6.07079582 7 7 C7.40729228 9.32156597 7.74438677 11.6568787 8 14 C5.09518096 10.68020681 0 4.76778006 0 0 Z " fill="#487FEC" transform="translate(228,240)"/>
<path d="M0 0 C0.62390625 0.18820313 1.2478125 0.37640625 1.890625 0.5703125 C0.91496388 1.73991237 -0.065 2.90592427 -1.046875 4.0703125 C-1.59214844 4.72 -2.13742188 5.3696875 -2.69921875 6.0390625 C-3.16457031 6.544375 -3.62992188 7.0496875 -4.109375 7.5703125 C-4.439375 7.5703125 -4.769375 7.5703125 -5.109375 7.5703125 C-5.33990997 4.72704786 -5.46840601 3.10885901 -3.859375 0.6953125 C-2.109375 -0.4296875 -2.109375 -0.4296875 0 0 Z " fill="#4382E9" transform="translate(256.109375,203.4296875)"/>
<path d="M0 0 C1.890625 0.296875 1.890625 0.296875 4 1 C6.19302649 5.07276348 7.4217962 8.36024175 7 13 C5.21178226 10.31767339 3.79857396 7.69711039 2.375 4.8125 C1.70597656 3.46091797 1.70597656 3.46091797 1.0234375 2.08203125 C0.68570313 1.39496094 0.34796875 0.70789063 0 0 Z " fill="#D6ECFE" transform="translate(170,115)"/>
<path d="M0 0 C0.66 0.33 1.32 0.66 2 1 C0.8553125 1.86625 0.8553125 1.86625 -0.3125 2.75 C-2.66200917 4.71703093 -4.29323505 6.48476744 -6 9 C-7.32 8.67 -8.64 8.34 -10 8 C-6.7 5.36 -3.4 2.72 0 0 Z " fill="#4D87E4" transform="translate(297,45)"/>
<path d="M0 0 C0.95465783 2.16967689 1.14401212 3.56328793 0.3984375 5.82421875 C-0.35870385 7.5684743 -1.17609198 9.28627131 -2 11 C-2.99 11 -3.98 11 -5 11 C-3.77472971 6.94718288 -2.30119506 3.55639236 0 0 Z " fill="#4886E6" transform="translate(47,236)"/>
<path d="M0 0 C6 7.71428571 6 7.71428571 6 11 C5.34 11 4.68 11 4 11 C3.67 11.66 3.34 12.32 3 13 C1.70074209 8.66914029 0.656379 4.48525648 0 0 Z " fill="#4781EA" transform="translate(169,114)"/>
<path d="M0 0 C0.99 0.33 1.98 0.66 3 1 C1.71372289 2.17260611 0.42080217 3.3379283 -0.875 4.5 C-1.59429687 5.1496875 -2.31359375 5.799375 -3.0546875 6.46875 C-5 8 -5 8 -7 8 C-7 7.01 -7 6.02 -7 5 C-5.68 4.67 -4.36 4.34 -3 4 C-3 3.34 -3 2.68 -3 2 C-2.01 1.34 -1.02 0.68 0 0 Z " fill="#D8EFFE" transform="translate(281,55)"/>
<path d="M0 0 C3.36591866 1.44253657 5.51047079 3.33264727 8 6 C6.68 6 5.36 6 4 6 C4 6.99 4 7.98 4 9 C3.34 9 2.68 9 2 9 C2.33 7.02 2.66 5.04 3 3 C2.01 2.67 1.02 2.34 0 2 C0 1.34 0 0.68 0 0 Z " fill="#377CEA" transform="translate(110,52)"/>
<path d="M0 0 C-4.84060277 3.06242216 -8.29290936 4.53411505 -14 5 C-12.67753846 2.35507692 -11.35464102 2.02166213 -8.6875 0.8125 C-7.90761719 0.44769531 -7.12773437 0.08289063 -6.32421875 -0.29296875 C-3.7433438 -1.07807525 -2.50336038 -0.89937661 0 0 Z " fill="#4886EC" transform="translate(382,1)"/>
<path d="M0 0 C2.5482148 2.5482148 3.12838054 4.51352218 4 8 C3.625 11.375 3.625 11.375 3 14 C1.20724134 10.88089144 0.65709282 8.32317572 0.375 4.75 C0.30023438 3.85796875 0.22546875 2.9659375 0.1484375 2.046875 C0.09945312 1.37140625 0.05046875 0.6959375 0 0 Z " fill="#3F7DDE" transform="translate(213,192)"/>
<path d="M0 0 C0 0.33 0 0.66 0 1 C-3.96 1 -7.92 1 -12 1 C-8.14267411 -2.85732589 -4.65697048 -2.26195709 0 0 Z " fill="#F0FAFB" transform="translate(61,349)"/>
<path d="M0 0 C2.64 1.98 5.28 3.96 8 6 C6.68 6.33 5.36 6.66 4 7 C1.75 5.25 1.75 5.25 0 3 C0 2.01 0 1.02 0 0 Z " fill="#DDF7FE" transform="translate(272,297)"/>
<path d="M0 0 C1.32 0.33 2.64 0.66 4 1 C0.535 3.97 0.535 3.97 -3 7 C-2.25 2.25 -2.25 2.25 0 0 Z " fill="#DAF1FE" transform="translate(60,217)"/>
<path d="M0 0 C-0.66 1.32 -1.32 2.64 -2 4 C-3.32 4 -4.64 4 -6 4 C-6.33 4.99 -6.66 5.98 -7 7 C-7.99 6.34 -8.98 5.68 -10 5 C-8.71186658 4.16121545 -7.41936744 3.32913217 -6.125 2.5 C-5.40570313 2.0359375 -4.68640625 1.571875 -3.9453125 1.09375 C-2 0 -2 0 0 0 Z " fill="#D0E6FE" transform="translate(74,336)"/>
<path d="M0 0 C0.33 0 0.66 0 1 0 C1.33 2.97 1.66 5.94 2 9 C1.01 9.495 1.01 9.495 0 10 C-0.99 9.34 -1.98 8.68 -3 8 C-3 7.34 -3 6.68 -3 6 C-2.34 6 -1.68 6 -1 6 C-0.67 4.02 -0.34 2.04 0 0 Z " fill="#D3E9FE" transform="translate(253,261)"/>
<path d="M0 0 C4.875 4.625 4.875 4.625 6 8 C4.35 7.67 2.7 7.34 1 7 C0.67 4.69 0.34 2.38 0 0 Z " fill="#CAE5FE" transform="translate(235,254)"/>
<path d="M0 0 C0.66 0 1.32 0 2 0 C2.33 0.99 2.66 1.98 3 3 C1.68 4.32 0.36 5.64 -1 7 C-1 6.34 -1 5.68 -1 5 C-1.99 5 -2.98 5 -4 5 C-4 4.34 -4 3.68 -4 3 C-3.01 2.67 -2.02 2.34 -1 2 C-0.67 1.34 -0.34 0.68 0 0 Z " fill="#2F7DF1" transform="translate(155,211)"/>
<path d="M0 0 C4.50621146 1.10529715 6.65094547 1.65094547 10 5 C6.7 4.34 3.4 3.68 0 3 C0 2.01 0 1.02 0 0 Z " fill="#477FEC" transform="translate(319,209)"/>
<path d="M0 0 C-3.1254959 2.64465038 -6.08788267 3.84414715 -10 5 C-8.20177069 -0.39468792 -5.09771267 -0.22656501 0 0 Z " fill="#D3ECFE" transform="translate(288,202)"/>
<path d="M0 0 C0.66 0 1.32 0 2 0 C0.68775452 3.93673644 -0.91910327 6.22719294 -4 9 C-4 7.02 -4 5.04 -4 3 C-3.01 3 -2.02 3 -1 3 C-0.67 2.01 -0.34 1.02 0 0 Z " fill="#D7EFFE" transform="translate(240,96)"/>
<path d="M0 0 C0 0.99 0 1.98 0 3 C-4.455 3.495 -4.455 3.495 -9 4 C-7.04565548 0.09131097 -4.13449517 0 0 0 Z " fill="#4E86F2" transform="translate(368,6)"/>
<path d="M0 0 C1.65 0 3.3 0 5 0 C1.80009492 2.74277578 -1.00499382 4.6302836 -5 6 C-4.67 5.01 -4.34 4.02 -4 3 C-3.01 2.67 -2.02 2.34 -1 2 C-0.67 1.34 -0.34 0.68 0 0 Z " fill="#437CE2" transform="translate(69,335)"/>
<path d="M0 0 C0.66 0.33 1.32 0.66 2 1 C1.01 2.485 1.01 2.485 0 4 C-1.9453125 4.29296875 -1.9453125 4.29296875 -4.125 4.1875 C-5.40375 4.125625 -6.6825 4.06375 -8 4 C-5.31143836 2.20762558 -3.0466145 1.01553817 0 0 Z " fill="#5288F0" transform="translate(89,205)"/>
<path d="M0 0 C1.22295649 3.66886948 0.41371057 4.55408047 -1 8 C-0.67 8.66 -0.34 9.32 0 10 C-0.99 9.67 -1.98 9.34 -3 9 C-3.33 7.35 -3.66 5.7 -4 4 C-2.68 3.34 -1.36 2.68 0 2 C0 1.34 0 0.68 0 0 Z " fill="#2F76F6" transform="translate(23,144)"/>
<path d="M0 0 C2.475 0.495 2.475 0.495 5 1 C5 1.66 5 2.32 5 3 C5.66 3 6.32 3 7 3 C7.33 4.32 7.66 5.64 8 7 C4.46399535 5.08864614 2.21027154 3.37357234 0 0 Z " fill="#D5F0FE" transform="translate(128,65)"/>
<path d="M0 0 C1.32 0.33 2.64 0.66 4 1 C-1.75 6 -1.75 6 -4 6 C-4 5.01 -4 4.02 -4 3 C-2.68 2.67 -1.36 2.34 0 2 C0 1.34 0 0.68 0 0 Z " fill="#D9F0FE" transform="translate(293,45)"/>
<path d="M0 0 C0.66 0.33 1.32 0.66 2 1 C0.35 2.32 -1.3 3.64 -3 5 C-4.32 4.34 -5.64 3.68 -7 3 C-4.69631264 1.93347808 -2.35981813 0.93578995 0 0 Z " fill="#387EEE" transform="translate(321,31)"/>
<path d="M0 0 C2.64 0 5.28 0 8 0 C8 1.32 8 2.64 8 4 C5.0280615 2.87548273 2.66559313 1.77706209 0 0 Z " fill="#457FF2" transform="translate(341,344)"/>
<path d="M0 0 C0.99 0 1.98 0 3 0 C3 0.66 3 1.32 3 2 C2.34 2 1.68 2 1 2 C1.33 3.32 1.66 4.64 2 6 C-2.875 3.25 -2.875 3.25 -4 1 C-2.68 1.33 -1.36 1.66 0 2 C0 1.34 0 0.68 0 0 Z " fill="#4080EF" transform="translate(292,308)"/>
<path d="M0 0 C0.33 0 0.66 0 1 0 C1 1.98 1 3.96 1 6 C-0.65 6.33 -2.3 6.66 -4 7 C-2.68 4.69 -1.36 2.38 0 0 Z " fill="#CBE6FE" transform="translate(163,255)"/>
<path d="M0 0 C0.33 0 0.66 0 1 0 C1.20086443 3.71599191 1.1519437 4.77208445 -1 8 C-1.99 8 -2.98 8 -4 8 C-2.87548273 5.0280615 -1.77706209 2.66559313 0 0 Z " fill="#D1E9FD" transform="translate(168,247)"/>
<path d="M0 0 C2.375 -0.125 2.375 -0.125 5 0 C7 2 7 2 7 5 C4.11562221 3.70700306 2.12780579 2.34058637 0 0 Z " fill="#D1EAFC" transform="translate(336,218)"/>
<path d="M0 0 C0.66 0.33 1.32 0.66 2 1 C2 1.66 2 2.32 2 3 C1.34 3 0.68 3 0 3 C-0.268125 3.61875 -0.53625 4.2375 -0.8125 4.875 C-2 7 -2 7 -5 9 C-4.67 7.68 -4.34 6.36 -4 5 C-3.34 5 -2.68 5 -2 5 C-1.34 3.35 -0.68 1.7 0 0 Z " fill="#D8F1FE" transform="translate(252,81)"/>
<path d="M0 0 C4.875 2.75 4.875 2.75 6 5 C3.36 5.33 0.72 5.66 -2 6 C-0.68 4.68 0.64 3.36 2 2 C1.34 2 0.68 2 0 2 C0 1.34 0 0.68 0 0 Z " fill="#397EEF" transform="translate(118,58)"/>
<path d="M0 0 C1.9375 0.375 1.9375 0.375 4 1 C4.33 1.66 4.66 2.32 5 3 C5.99 3.33 6.98 3.66 8 4 C8 4.99 8 5.98 8 7 C7.34 7 6.68 7 6 7 C6 6.34 6 5.68 6 5 C5.38125 4.731875 4.7625 4.46375 4.125 4.1875 C2 3 2 3 0 0 Z " fill="#DEF2FE" transform="translate(348,230)"/>
<path d="M0 0 C0.99 0 1.98 0 3 0 C2.3125 1.9375 2.3125 1.9375 1 4 C-1.625 4.75 -1.625 4.75 -4 5 C-2.1875 2.5 -2.1875 2.5 0 0 Z " fill="#3D7EE5" transform="translate(62,219)"/>
<path d="M0 0 C5.75 -0.125 5.75 -0.125 8 1 C8 1.99 8 2.98 8 4 C2.25 2.25 2.25 2.25 0 0 Z " fill="#D2EEFE" transform="translate(114,203)"/>
<path d="M0 0 C0.66 1.32 1.32 2.64 2 4 C1.34 4 0.68 4 0 4 C0.33 5.32 0.66 6.64 1 8 C-0.32 8 -1.64 8 -3 8 C-1.125 2.25 -1.125 2.25 0 0 Z " fill="#D4EBFE" transform="translate(395,133)"/>
<path d="M0 0 C2.56616632 3.84924948 2.55097676 6.4349304 3 11 C1.5 10 1.5 10 0 8 C-0.27345479 5.28153765 -0.13491285 2.74322801 0 0 Z " fill="#C1E2FD" transform="translate(0,119)"/>
<path d="M0 0 C1.32 0.33 2.64 0.66 4 1 C5.3125 3.375 5.3125 3.375 6 6 C5.67 6.99 5.34 7.98 5 9 C3.35 6.03 1.7 3.06 0 0 Z " fill="#D9F1FE" transform="translate(164,105)"/>
<path d="M0 0 C0 1.32 0 2.64 0 4 C-1.98 4.33 -3.96 4.66 -6 5 C-3.74193548 0 -3.74193548 0 0 0 Z " fill="#3779EB" transform="translate(359,10)"/>
<path d="M0 0 C1 2 2 4 3 6 C0.5625 5.625 0.5625 5.625 -2 5 C-2.33 4.34 -2.66 3.68 -3 3 C-2.34 3 -1.68 3 -1 3 C-0.67 2.01 -0.34 1.02 0 0 Z " fill="#2A77ED" transform="translate(44,343)"/>
<path d="M0 0 C1.9375 0.3125 1.9375 0.3125 4 1 C4.33 1.99 4.66 2.98 5 4 C3.35 4 1.7 4 0 4 C0 2.68 0 1.36 0 0 Z " fill="#277CF0" transform="translate(345,340)"/>
<path d="M0 0 C3.43927579 1.2419607 6.25207819 2.55740284 9 5 C9 5.66 9 6.32 9 7 C5.18315774 5.44499019 2.80804268 2.96404505 0 0 Z " fill="#5188E0" transform="translate(279,302)"/>
<path d="M0 0 C0.33 0 0.66 0 1 0 C1 4.29 1 8.58 1 13 C0.01 12.67 -0.98 12.34 -2 12 C-1.67 11.34 -1.34 10.68 -1 10 C-0.77377919 8.29636178 -0.59111527 6.58671299 -0.4375 4.875 C-0.35371094 3.96492187 -0.26992187 3.05484375 -0.18359375 2.1171875 C-0.12300781 1.41851562 -0.06242188 0.71984375 0 0 Z " fill="#EDFEFC" transform="translate(251,246)"/>
<path d="M0 0 C3.44216672 2.6598561 3.99504674 5.90288286 5 10 C1.32769295 6.92000054 0.43197635 4.7517398 0 0 Z " fill="#4983E0" transform="translate(139,224)"/>
<path d="M0 0 C0.66 0 1.32 0 2 0 C1.67 1.98 1.34 3.96 1 6 C0.01 6 -0.98 6 -2 6 C-1.49396008 3.83125748 -1.00016187 2.00032373 0 0 Z " fill="#3D7DEB" transform="translate(56,224)"/>
<path d="M0 0 C1.98 0 3.96 0 6 0 C6 0.66 6 1.32 6 2 C3.69 2.66 1.38 3.32 -1 4 C-0.67 2.68 -0.34 1.36 0 0 Z " fill="#237DEE" transform="translate(65,218)"/>
<path d="M0 0 C0.66 0 1.32 0 2 0 C1.375 1.875 1.375 1.875 0 4 C-3.125 5.25 -3.125 5.25 -6 6 C-4 4 -2 2 0 0 Z " fill="#C8E9FE" transform="translate(268,195)"/>
<path d="M0 0 C2.49361571 1.20381448 4.68143083 2.45428722 7 4 C6.67 4.99 6.34 5.98 6 7 C1.125 2.25 1.125 2.25 0 0 Z " fill="#528AE4" transform="translate(13,146)"/>
<path d="M0 0 C0.66 0.33 1.32 0.66 2 1 C0.69593116 3.01920337 -0.63823419 5.01924973 -2 7 C-2.33 7 -2.66 7 -3 7 C-3 5.02 -3 3.04 -3 1 C-2.01 0.67 -1.02 0.34 0 0 Z " fill="#3F7BE8" transform="translate(391,138)"/>
<path d="M0 0 C1.65 0 3.3 0 5 0 C4.67 1.98 4.34 3.96 4 6 C2.62437146 4.71034824 1.29233607 3.37310707 0 2 C0 1.34 0 0.68 0 0 Z " fill="#3B78EB" transform="translate(7,137)"/>
<path d="M0 0 C0.66 1.32 1.32 2.64 2 4 C1.01 5.32 0.02 6.64 -1 8 C-1.66 7.67 -2.32 7.34 -3 7 C-2.01 4.69 -1.02 2.38 0 0 Z " fill="#4B88F0" transform="translate(224,125)"/>
<path d="M0 0 C3.91211733 1.15585285 6.8745041 2.35534962 10 5 C5 4 5 4 0 3 C0 2.01 0 1.02 0 0 Z " fill="#4983EC" transform="translate(35,7)"/>
</svg>
