<?xml version="1.0" encoding="UTF-8"?>
<svg version="1.1" xmlns="http://www.w3.org/2000/svg" width="224" height="225">
<path d="M0 0 C73.92 0 147.84 0 224 0 C224 74.25 224 148.5 224 225 C150.08 225 76.16 225 0 225 C0 150.75 0 76.5 0 0 Z " fill="#FCFDFE" transform="translate(0,0)"/>
<path d="M0 0 C1.07196247 -0.00024107 2.14392494 -0.00048214 3.24837112 -0.00073051 C6.67250512 0.00074638 10.09641345 0.01590379 13.52050781 0.03173828 C15.65283097 0.03468376 17.78515557 0.03672109 19.91748047 0.0378418 C27.76955349 0.04827064 35.62159544 0.07619311 43.47363281 0.10205078 C69.83238281 0.16392578 69.83238281 0.16392578 96.72363281 0.22705078 C96.72363281 52.36705078 96.72363281 104.50705078 96.72363281 158.22705078 C44.91363281 158.22705078 -6.89636719 158.22705078 -60.27636719 158.22705078 C-60.27636719 140.07705078 -60.27636719 121.92705078 -60.27636719 103.22705078 C-55.32636719 103.22705078 -50.37636719 103.22705078 -45.27636719 103.22705078 C-44.94636719 115.76705078 -44.61636719 128.30705078 -44.27636719 141.22705078 C-15.07136719 141.72205078 -15.07136719 141.72205078 14.72363281 142.22705078 C14.40756252 125.42803583 14.40756252 125.42803583 14.00292969 108.63110352 C13.97955209 106.51598342 13.95916931 104.4008272 13.94238281 102.28564453 C13.90145508 101.19868286 13.86052734 100.11172119 13.81835938 98.99182129 C13.81139102 91.38847622 13.81139102 91.38847622 16.31176758 88.20510864 C18.33496094 86.47338867 18.33496094 86.47338867 20.55125427 84.88990784 C22.89811707 83.09349101 24.26881153 81.23040417 25.98364258 78.83837891 C28.05878746 76.41361544 29.19260948 75.36892393 32.29782104 74.53930664 C35.41721354 74.30234342 38.43768374 74.3257189 41.56347656 74.44580078 C42.55899536 74.45385742 43.55451416 74.46191406 44.5802002 74.47021484 C48.27460176 74.51185617 51.9679466 74.62354952 55.66113281 74.72705078 C63.93175781 74.89205078 72.20238281 75.05705078 80.72363281 75.22705078 C80.72363281 55.75705078 80.72363281 36.28705078 80.72363281 16.22705078 C63.95397442 16.31801417 63.95397442 16.31801417 47.18457031 16.43603516 C40.337912 16.49021584 33.49133305 16.54133135 26.64453125 16.57348633 C21.12008623 16.59963137 15.59591002 16.64011226 10.07163239 16.69023705 C7.97152315 16.70683029 5.8713675 16.71839125 3.77120209 16.72466469 C-15.04461304 16.78651935 -29.6774048 18.35515583 -43.92089844 31.71533203 C-50.20300107 38.41415789 -53.95651564 46.19603654 -57.23339844 54.69580078 C-58.27636719 57.22705078 -58.27636719 57.22705078 -60.27636719 60.22705078 C-61.03554789 44.62166962 -57.27066553 29.74307027 -47.46386719 17.28955078 C-34.61861905 3.79864202 -17.97391108 -0.13353642 0 0 Z " fill="#67CCFF" transform="translate(127.2763671875,66.77294921875)"/>
<path d="M0 0 C51.81 0 103.62 0 157 0 C157 18.15 157 36.3 157 55 C152.05 55 147.1 55 142 55 C142 42.13 142 29.26 142 16 C122.53 16.33 103.06 16.66 83 17 C83.06662644 33.42437509 83.06662644 33.42437509 83.24267578 49.84765625 C83.2308261 51.9192971 83.21528316 53.99092152 83.1953125 56.0625 C83.23966431 57.65288086 83.23966431 57.65288086 83.28491211 59.27539062 C83.19985511 63.88354212 83.10484019 66.82125058 79.86956787 70.27294922 C78.11308983 71.63156272 76.31158166 72.9338307 74.47108459 74.17625427 C71.99936747 76.00046683 71.02227742 77.29641768 69.6027832 79.95727539 C68.05967954 82.31907976 67.39312599 82.90212174 64.61239624 83.5944519 C61.50221496 83.81206609 58.47135164 83.78733593 55.35546875 83.68359375 C54.35793579 83.67654419 53.36040283 83.66949463 52.3326416 83.66223145 C48.61701892 83.62568896 44.90220116 83.52795743 41.1875 83.4375 C32.875625 83.293125 24.56375 83.14875 16 83 C16 102.47 16 121.94 16 142 C32.74528192 141.9381281 32.74528192 141.9381281 49.49023438 141.83984375 C56.32804551 141.79164468 63.16569785 141.74754895 70.00366211 141.72900391 C75.52168401 141.71376861 81.03928815 141.67920172 86.55712318 141.63169098 C88.6536119 141.6169478 90.75016028 141.60896308 92.84670067 141.60811615 C111.30279537 141.59317353 126.83451714 139.38628574 140.87109375 126.27734375 C148.44049878 118.18016369 152.23271271 108.22549408 156 98 C156.33 98 156.66 98 157 98 C157.81509184 113.4867449 153.35513411 128.52828054 143.828125 140.796875 C133.45997167 151.75329235 119.56731687 157.53936911 104.5645752 158.08926582 C101.79903953 158.1223708 99.03524783 158.12374626 96.26953125 158.11352539 C95.2079631 158.11364593 94.14639496 158.11376646 93.05265808 158.11389065 C89.63925024 158.11314826 86.22589799 158.10555087 82.8125 158.09765625 C80.69596381 158.09618474 78.57942725 158.09516532 76.46289062 158.09460449 C68.64192151 158.08937582 60.8209602 158.07541455 53 158.0625 C35.51 158.041875 18.02 158.02125 0 158 C0 105.86 0 53.72 0 0 Z " fill="#025496" transform="translate(0,0)"/>
<path d="M0 0 C22.11 0 44.22 0 67 0 C67 22.11 67 44.22 67 67 C44.89 67 22.78 67 0 67 C0 44.89 0 22.78 0 0 Z " fill="#FDFEFE" transform="translate(0,0)"/>
<path d="M0 0 C21.78 0 43.56 0 66 0 C66 22.11 66 44.22 66 67 C44.22 67 22.44 67 0 67 C0 44.89 0 22.78 0 0 Z " fill="#FFFFFF" transform="translate(158,158)"/>
<path d="M0 0 C3.62342508 1.6470114 6.16816086 3.4327343 8 7 C8.5104392 12.35961156 8.4594433 15.64366399 5 20 C1.89013793 22.07324138 1.10891613 22.27392186 -2.4375 22.25 C-3.19933594 22.25515625 -3.96117188 22.2603125 -4.74609375 22.265625 C-7.27516029 21.9675721 -8.85353568 21.36049987 -11 20 C-13.58836091 15.93257571 -14.70045238 12.80310204 -14 8 C-10.35880575 1.47096204 -7.53718616 -0.64975743 0 0 Z " fill="#045596" transform="translate(115,101)"/>
</svg>
