<?xml version="1.0" encoding="UTF-8"?>
<svg version="1.1" xmlns="http://www.w3.org/2000/svg" width="200" height="200">
<path d="M0 0 C2.48216335 0.9096651 3.72741142 1.69503423 5.57171726 3.55323315 C6.14233891 4.11835613 6.71296055 4.68347912 7.30087376 5.26572704 C7.90939686 5.88863125 8.51791996 6.51153545 9.14488316 7.15331554 C10.1262122 8.13376842 10.1262122 8.13376842 11.12736607 9.13402843 C13.28499417 11.29444072 15.42811308 13.46866988 17.57139683 15.64330578 C19.0655332 17.14490329 20.56055581 18.64561943 22.05642796 20.14548779 C25.98947127 24.09379716 29.91035441 28.05397147 33.82884312 32.01671886 C37.83016712 36.05897402 41.84285087 40.08991718 45.85459995 44.1218214 C53.72319468 52.03330425 61.57899202 59.95736544 69.42686558 67.88939953 C67.73750302 71.48248377 65.74335086 73.83074044 62.92686558 76.65502453 C61.59655308 77.98920422 61.59655308 77.98920422 60.23936558 79.35033703 C58.84717808 80.73092297 58.84717808 80.73092297 57.42686558 82.13939953 C56.49874058 83.0752589 55.57061558 84.01111828 54.61436558 84.97533703 C53.72749058 85.8596339 52.84061558 86.74393078 51.92686558 87.65502453 C51.11217808 88.46745617 50.29749058 89.27988781 49.45811558 90.11693859 C47.42686558 91.88939953 47.42686558 91.88939953 45.42686558 91.88939953 C44.016572 90.45910168 44.016572 90.45910168 42.36412144 88.4577589 C38.28207885 83.66060676 33.89727618 79.23315924 29.43077183 74.79564953 C28.59722675 73.9635194 27.76368168 73.13138927 26.90487766 72.27404308 C24.26873296 69.64345018 21.62911453 67.01637512 18.98936558 64.38939953 C17.19030579 62.59536098 15.39147538 60.80109237 13.5928812 59.00658703 C9.20685745 54.63152827 4.81798416 50.25934441 0.42686558 45.88939953 C-3.43779775 47.47720312 -5.87372598 49.94873182 -8.80067348 52.88988781 C-9.56232815 53.65110439 -9.56232815 53.65110439 -10.33936977 54.42769909 C-12.01061951 56.10033822 -13.67467998 57.77994169 -15.33875942 59.45971203 C-16.49845819 60.62314231 -17.65860035 61.78613078 -18.81916714 62.94869518 C-21.86822794 66.00538152 -24.91123406 69.06802696 -27.95301723 72.13195324 C-31.05973356 75.25915118 -34.17213988 78.3806746 -37.28407192 81.50268078 C-43.38600859 87.62604833 -49.4815604 93.75572313 -55.57313442 99.88939953 C-54.09278614 103.32183915 -52.15915779 105.55140379 -49.52235317 108.1831007 C-48.68808804 109.02044247 -47.8538229 109.85778423 -46.994277 110.72049999 C-46.09217495 111.61541653 -45.1900729 112.51033306 -44.26063442 113.43236828 C-43.33597378 114.3565707 -42.41131313 115.28077312 -41.45863247 116.23298168 C-39.50476099 118.18529181 -37.54758382 120.13420415 -35.58778286 122.08056164 C-33.07405047 124.5772694 -30.56698653 127.08054485 -28.06213284 129.58615685 C-25.67275597 131.9751968 -23.27914694 134.35997142 -20.88563442 136.74486828 C-19.53248135 138.09635212 -19.53248135 138.09635212 -18.15199184 139.47513866 C-17.31772671 140.30302395 -16.48346157 141.13090923 -15.62391567 141.98388195 C-14.88826382 142.71572201 -14.15261196 143.44756207 -13.39466763 144.20157909 C-11.6699557 145.95760477 -11.6699557 145.95760477 -9.57313442 146.88939953 C-11.11231452 150.55691958 -13.32798894 152.87520525 -16.14344692 155.65502453 C-17.03934536 156.54447765 -17.9352438 157.43393078 -18.85829067 158.35033703 C-19.79543911 159.27072765 -20.73258755 160.19111828 -21.69813442 161.13939953 C-22.65302079 162.08424809 -23.60745301 163.02955586 -24.56141567 163.97533703 C-26.89422529 166.28458291 -29.23157529 168.58903155 -31.57313442 170.88939953 C-34.34089058 169.62153044 -36.40313681 168.3137064 -38.56649685 166.17692089 C-39.12877483 165.62606319 -39.69105282 165.0752055 -40.27036953 164.50765514 C-40.87470821 163.90555218 -41.4790469 163.30344921 -42.10169888 162.6831007 C-43.07058796 161.72910633 -43.07058796 161.72910633 -44.05905056 160.75583935 C-46.19045449 158.65360932 -48.3140256 156.54369609 -50.43641567 154.43236828 C-51.91282501 152.96746287 -53.38924008 151.50256325 -54.86566067 150.03766918 C-57.95701901 146.96730777 -61.04370385 143.89232491 -64.12806606 140.81493664 C-68.08720866 136.86679138 -72.06457223 132.93755106 -76.04652023 129.01242638 C-79.10107493 125.99504753 -82.14220029 122.9644059 -85.1797533 119.92992115 C-86.64089091 118.47484974 -88.10704434 117.02479752 -89.57819462 115.5798502 C-91.63033927 113.56168508 -93.66285543 111.52558742 -95.69154263 109.48388195 C-96.30600246 108.88785168 -96.9204623 108.2918214 -97.55354214 107.67772961 C-99.21469021 105.98282909 -99.21469021 105.98282909 -101.57313442 102.88939953 C-101.36915798 98.57912838 -99.74300996 96.55497028 -96.76606655 93.56093884 C-95.53796261 92.31158047 -95.53796261 92.31158047 -94.28504848 91.03698254 C-93.38012661 90.1370155 -92.47520473 89.23704845 -91.54286098 88.30980968 C-90.58450302 87.34275474 -89.62698364 86.37486814 -88.67024136 85.40621471 C-86.07214231 82.78134845 -83.46139049 80.16942451 -80.84734726 77.56044722 C-78.66667082 75.38191015 -76.49197639 73.19744967 -74.317168 71.01305711 C-69.18809837 65.86180357 -64.04845163 60.72127331 -58.90223598 55.58715343 C-53.59002712 50.28703857 -48.29646691 44.96880441 -43.0116303 39.64140761 C-38.47459014 35.06917573 -33.92606345 30.50859923 -29.36813617 25.95718896 C-26.64543713 23.23812097 -23.92740816 20.51476092 -21.22041988 17.7800436 C-18.67605906 15.21059847 -16.11769775 12.65598227 -13.54772091 10.1121664 C-12.15621885 8.72767748 -10.77955529 7.32832517 -9.40333462 5.92864513 C-8.57331936 5.1126585 -7.7433041 4.29667187 -6.88813686 3.45595837 C-6.17135895 2.73884497 -5.45458103 2.02173157 -4.71608257 1.28288746 C-2.57313442 -0.11060047 -2.57313442 -0.11060047 0 0 Z " fill="#000000" transform="translate(101.57313442230225,0.11060047149658203)"/>
<path d="M0 0 C3.56689757 1.51503198 5.83755627 3.60055978 8.55322266 6.34204102 C9.44739899 7.2395961 10.34157532 8.13715118 11.2628479 9.06190491 C12.22995126 10.04254064 13.19702201 11.02320852 14.1640625 12.00390625 C15.16195436 13.00807139 16.16036503 14.01172121 17.15927124 15.01487732 C19.78325168 17.65213983 22.40160094 20.29491671 25.01837158 22.93933105 C29.21258277 27.1767224 33.413583 31.40735711 37.6178093 35.63480949 C39.08595836 37.11319333 40.55065478 38.59493579 42.01504517 40.07704163 C42.90291718 40.97144455 43.79078918 41.86584747 44.70556641 42.78735352 C45.48848053 43.57852066 46.27139465 44.36968781 47.07803345 45.18482971 C48.87685361 47.05884315 48.87685361 47.05884315 51 48 C51.2571579 47.41752502 51.5143158 46.83505005 51.77926636 46.23492432 C53.10949751 43.79953149 54.56501861 42.19417733 56.53173828 40.24121094 C57.25233429 39.52076599 57.9729303 38.80032104 58.71536255 38.05804443 C59.49249603 37.29123352 60.26962952 36.52442261 61.0703125 35.734375 C61.86654022 34.94097717 62.66276794 34.14757935 63.48312378 33.33013916 C66.02575948 30.79869297 68.57526348 28.27429197 71.125 25.75 C72.85071753 24.03431383 74.57598355 22.31817338 76.30078125 20.6015625 C80.52863032 16.39575752 84.76213869 12.19571493 89 8 C94.58641658 10.64601899 98.45147238 15.00274089 102.8125 19.3125 C104.15731445 20.59543945 104.15731445 20.59543945 105.52929688 21.90429688 C106.37169922 22.73638672 107.21410156 23.56847656 108.08203125 24.42578125 C108.85780518 25.18286377 109.6335791 25.93994629 110.43286133 26.7199707 C112 29 112 29 111.83351517 31.37434578 C110.83458176 34.52108361 109.5532143 35.95470925 107.230896 38.29049683 C106.42057419 39.11498825 105.61025238 39.93947968 104.77537537 40.78895569 C103.87980423 41.67957199 102.98423309 42.57018829 102.06152344 43.48779297 C101.11301758 44.44499592 100.16535031 45.40303046 99.21846008 46.36183167 C96.64721859 48.959839 94.06332728 51.54490396 91.47614193 54.12702322 C89.31783328 56.28319241 87.16550714 58.44528491 85.01306653 60.60730946 C79.93673414 65.70582528 74.84982602 70.79361767 69.75634766 75.875 C64.49866926 81.12058433 59.25964246 86.3842854 54.02933669 91.6571511 C49.53900535 96.18267467 45.03718781 100.69654145 40.52596879 105.20124352 C37.83121471 107.89236664 35.14113212 110.58777931 32.46208954 113.29455185 C29.94399251 115.83773403 27.41189807 118.36608177 24.86818504 120.88363457 C23.49099643 122.2538104 22.12864553 123.6388491 20.76673889 125.0242157 C19.94513779 125.83178818 19.12353668 126.63936066 18.27703857 127.47140503 C17.21293322 128.53601361 17.21293322 128.53601361 16.12733078 129.62212944 C14 131 14 131 11.38290787 130.84237862 C8.17067758 129.70682732 6.50963948 127.96150114 4.13671875 125.52734375 C3.25048828 124.62822266 2.36425781 123.72910156 1.45117188 122.80273438 C0.53916016 121.85720703 -0.37285156 120.91167969 -1.3125 119.9375 C-2.25232276 118.97760179 -3.19306889 118.01860671 -4.13476562 117.06054688 C-6.43242024 114.71576088 -8.7202276 112.36215473 -11 110 C-9.60919475 106.86261846 -7.98977796 104.74524719 -5.56005859 102.33300781 C-4.85948334 101.63258362 -4.15890808 100.93215942 -3.43710327 100.21051025 C-2.68184357 99.46557312 -1.92658386 98.72063599 -1.1484375 97.953125 C-0.37440582 97.18192322 0.39962585 96.41072144 1.19711304 95.6161499 C3.66841923 93.15603144 6.14659183 90.70296152 8.625 88.25 C10.30254052 86.58249106 11.97962945 84.91452768 13.65625 83.24609375 C17.76560919 79.1587763 21.88062647 75.07722304 26 71 C25.40895981 70.42006287 24.81791962 69.84012573 24.20896912 69.24261475 C18.64823298 63.78195616 13.09952219 58.30942424 7.5640707 52.82313156 C4.7176192 50.00280262 1.86669275 47.18732323 -0.99487305 44.38232422 C-3.75495573 41.67646572 -6.5027354 38.95866509 -9.24232292 36.23206329 C-10.29100262 35.19264069 -11.34408189 34.15763797 -12.40152168 33.1271286 C-13.87917616 31.68563668 -15.34056744 30.22938325 -16.79907227 28.76855469 C-17.63624283 27.94248718 -18.47341339 27.11641968 -19.33595276 26.26531982 C-21 24 -21 24 -20.88439941 21.84509277 C-19.57464427 19.11259463 -17.6854825 17.35179415 -15.52734375 15.234375 C-14.62822266 14.34492187 -13.72910156 13.45546875 -12.80273438 12.5390625 C-11.85720703 11.61867188 -10.91167969 10.69828125 -9.9375 9.75 C-8.97783027 8.80538327 -8.01883771 7.86007805 -7.06054688 6.9140625 C-4.71361172 4.60250828 -2.35996609 2.2982366 0 0 Z " fill="#0197FF" transform="translate(88,69)"/>
</svg>
