<svg  viewBox="0 0 30 30" fill="none" xmlns="http://www.w3.org/2000/svg">
<g clip-path="url(#clip0_1035_898)">
<path d="M21.2692 28.6672H8.32276C6.3607 28.6672 4.479 27.8877 3.09162 26.5003C1.70423 25.113 0.924805 23.2313 0.924805 21.2692V8.32276C0.924805 6.3607 1.70423 4.479 3.09162 3.09162C4.479 1.70423 6.3607 0.924805 8.32276 0.924805H21.2692C23.2313 0.924805 25.113 1.70423 26.5003 3.09162C27.8877 4.479 28.6672 6.3607 28.6672 8.32276V21.2692C28.6672 23.2313 27.8877 25.113 26.5003 26.5003C25.113 27.8877 23.2313 28.6672 21.2692 28.6672Z" stroke="white" stroke-width="1.84949" stroke-miterlimit="10"/>
<path d="M14.7965 21.2692C18.3715 21.2692 21.2697 18.371 21.2697 14.796C21.2697 11.2209 18.3715 8.32275 14.7965 8.32275C11.2214 8.32275 8.32324 11.2209 8.32324 14.796C8.32324 18.371 11.2214 21.2692 14.7965 21.2692Z" stroke="white" stroke-width="1.84949" stroke-miterlimit="10"/>
<path d="M23.1191 7.39783C23.6298 7.39783 24.0438 6.98381 24.0438 6.47308C24.0438 5.96236 23.6298 5.54834 23.1191 5.54834C22.6084 5.54834 22.1943 5.96236 22.1943 6.47308C22.1943 6.98381 22.6084 7.39783 23.1191 7.39783Z" stroke="white" stroke-width="1.84949" stroke-miterlimit="10"/>
</g>
<defs>
<clipPath id="clip0_1035_898">
<rect width="29.5918" height="29.5918" fill="white"/>
</clipPath>
</defs>
</svg>
