<svg viewBox="0 0 31 31" fill="none" xmlns="http://www.w3.org/2000/svg">
<path d="M24.9465 29.7596H5.4449C2.78559 29.7596 0.632812 27.6068 0.632812 24.9475V5.44588C0.632812 2.78657 2.78559 0.633789 5.4449 0.633789H24.8199C27.4792 0.633789 29.632 2.78657 29.632 5.44588V24.8209C29.7586 27.6068 27.6059 29.7596 24.9465 29.7596ZM5.4449 1.90013C3.41876 1.90013 1.89915 3.54637 1.89915 5.44588V24.8209C1.89915 26.847 3.54539 28.3666 5.4449 28.3666H24.8199C26.846 28.3666 28.3657 26.7204 28.3657 24.8209V5.44588C28.3657 3.41974 26.7194 1.90013 24.8199 1.90013H5.4449Z" fill="white"/>
<path d="M10.7639 24.947H6.83825C6.45835 24.947 6.20508 24.6937 6.20508 24.3138V11.9037C6.20508 11.5238 6.45835 11.2705 6.83825 11.2705H10.7639C11.1438 11.2705 11.3971 11.5238 11.3971 11.9037V24.3138C11.3971 24.6937 11.1438 24.947 10.7639 24.947ZM7.47142 23.6806H10.1307V12.5368H7.47142V23.6806Z" fill="white"/>
<path d="M24.0602 24.9469H19.628C19.2481 24.9469 18.9948 24.6937 18.9948 24.3138V18.9952C18.9948 17.6022 18.4883 16.8424 17.3486 16.8424C16.4621 16.8424 16.0822 17.4755 15.829 17.9821V24.3138C15.829 24.6937 15.5757 24.9469 15.1958 24.9469H10.7636C10.637 24.9469 10.3837 24.8203 10.2571 24.8203C10.1304 24.8203 10.1304 24.4404 10.1304 24.3138V12.0303C10.1304 11.9036 10.1304 11.6504 10.2571 11.5237C10.3837 11.3971 10.637 11.2705 10.7636 11.2705H15.1958C15.5757 11.2705 15.829 11.5237 15.829 11.9036V12.1569C16.5888 11.6504 17.7285 11.1438 19.1214 11.1438C21.7808 11.1438 24.6933 12.7901 24.6933 17.3489V24.1871C24.6933 24.6937 24.3134 24.9469 24.0602 24.9469ZM20.2612 23.6806H23.427V17.4755C23.427 14.3097 21.9074 12.5368 19.1214 12.5368C17.0953 12.5368 15.9556 13.5499 15.829 14.1831C15.7023 14.4363 15.4491 14.6896 15.0692 14.563C14.8159 14.563 14.5626 14.3097 14.5626 13.9298V12.6635H11.3968V23.8072H14.5626V18.7419C14.5626 18.362 14.5626 17.9821 14.6893 17.6022C15.1958 16.3358 16.2089 15.7027 17.3486 15.7027C19.1214 15.7027 20.2612 16.969 20.2612 19.1218V23.6806ZM8.73746 11.0172C6.96458 11.0172 5.69824 9.8775 5.69824 8.23126C5.69824 6.58502 6.96458 5.44531 8.73746 5.44531C10.5103 5.44531 11.65 6.58502 11.7767 8.23126C11.7767 9.8775 10.5103 11.0172 8.73746 11.0172ZM8.73746 6.71165C7.72439 6.71165 6.96458 7.34482 6.96458 8.23126C6.96458 9.1177 7.59775 9.75087 8.61082 9.75087C9.6239 9.75087 10.3837 9.1177 10.3837 8.23126C10.5103 7.34482 9.75053 6.71165 8.73746 6.71165Z" fill="white"/>
</svg>
