<svg  viewBox="0 0 28 28" fill="none" xmlns="http://www.w3.org/2000/svg">
<g clip-path="url(#clip0_6_149)">
<path d="M12.943 13.2049C11.8191 12.6711 9.84832 12.216 7.46971 12.1069C3.7183 11.9348 0.981323 13.0245 0.981323 14.1564C0.981323 14.8926 2.21022 15.5382 4.05541 15.8995C3.34967 15.6025 2.96044 15.2245 2.96044 14.7744C2.96044 13.7764 6.31634 11.8487 11.3072 12.8813C11.9026 13.0045 12.4466 13.1111 12.943 13.2049Z" fill="currentColor"/>
<path d="M15.0572 14.795C16.1811 15.3288 18.1519 15.7839 20.5305 15.893C24.2819 16.0651 27.0189 14.9754 27.0189 13.8435C27.0189 13.1073 25.79 12.4617 23.9448 12.1004C24.6505 12.3973 25.0397 12.7754 25.0397 13.2255C25.0397 14.2235 21.6838 16.1512 16.693 15.1186C16.0976 14.9954 15.5536 14.8888 15.0572 14.795Z" fill="currentColor"/>
<path d="M14.7952 12.9428C15.329 11.819 15.784 9.84818 15.8932 7.46956C16.0653 3.71816 14.9756 0.981176 13.8436 0.981176C13.1074 0.981176 12.4619 2.21008 12.1005 4.05527C12.3975 3.34952 12.7755 2.9603 13.2257 2.9603C14.2237 2.9603 16.1513 6.31619 15.1187 11.307C14.9955 11.9025 14.889 12.4465 14.7952 12.9428Z" fill="currentColor"/>
<path d="M13.205 15.0571C12.6712 16.1809 12.2161 18.1517 12.107 20.5303C11.9349 24.2817 13.0246 27.0187 14.1565 27.0187C14.8928 27.0187 15.5383 25.7898 15.8997 23.9446C15.6027 24.6504 15.2246 25.0396 14.7745 25.0396C13.7765 25.0396 11.8489 21.6837 12.8815 16.6929C13.0047 16.0974 13.1112 15.5534 13.205 15.0571Z" fill="currentColor"/>
<path d="M13.8148 12.6902C13.3975 11.5181 12.3258 9.80276 10.721 8.04366C8.19003 5.26933 5.48416 4.10453 4.68378 4.90491C4.16319 5.42549 4.57568 6.75093 5.6249 8.31121C5.33586 7.60217 5.32796 7.05963 5.64625 6.74133C6.35194 6.03565 10.088 7.04558 12.8869 11.3048C13.2208 11.8129 13.5301 12.2729 13.8148 12.6902Z" fill="currentColor"/>
<path d="M14.1854 15.3097C14.6026 16.4818 15.6744 18.1971 17.2791 19.9562C19.8101 22.7306 22.516 23.8954 23.3164 23.095C23.8369 22.5744 23.4244 21.249 22.3752 19.6887C22.6643 20.3977 22.6722 20.9403 22.3539 21.2586C21.6482 21.9642 17.9122 20.9543 15.1133 16.6951C14.7793 16.187 14.47 15.727 14.1854 15.3097Z" fill="currentColor"/>
<path d="M15.3098 13.8147C16.4819 13.3974 18.1973 12.3256 19.9563 10.7209C22.7307 8.18991 23.8955 5.48405 23.0951 4.68366C22.5745 4.16308 21.2491 4.57557 19.6888 5.62478C20.3978 5.33575 20.9404 5.32784 21.2587 5.64613C21.9644 6.35182 20.9544 10.0878 16.6952 12.8867C16.1871 13.2207 15.7271 13.53 15.3098 13.8147Z" fill="currentColor"/>
<path d="M12.6903 14.1852C11.5182 14.6025 9.80287 15.6742 8.04378 17.279C5.26945 19.81 4.10464 22.5158 4.90503 23.3162C5.42561 23.8368 6.75105 23.4243 8.31133 22.3751C7.60229 22.6641 7.05974 22.672 6.74145 22.3538C6.03577 21.6481 7.0457 17.912 11.3049 15.1131C11.813 14.7792 12.273 14.4699 12.6903 14.1852Z" fill="currentColor"/>
<path d="M12.7192 13.6699C11.4766 13.6068 9.48168 13.9406 7.24237 14.75C3.71066 16.0267 1.59903 18.0808 2.0322 19.1266C2.31394 19.8067 3.69633 19.9329 5.53936 19.5606C4.77368 19.5563 4.26941 19.356 4.09715 18.9401C3.71524 18.0181 6.07801 14.9529 11.0841 13.997C11.6813 13.883 12.2247 13.7732 12.7192 13.6699Z" fill="currentColor"/>
<path d="M15.281 14.33C16.5236 14.3931 18.5185 14.0593 20.7578 13.2498C24.2895 11.9732 26.4012 9.9191 25.968 8.87334C25.6863 8.19317 24.3039 8.06704 22.4608 8.43929C23.2265 8.44359 23.7308 8.64392 23.903 9.05978C24.285 9.98181 21.9222 13.047 16.9161 14.0029C16.3189 14.1169 15.7755 14.2267 15.281 14.33Z" fill="currentColor"/>
<path d="M14.3301 12.719C14.3932 11.4764 14.0594 9.48153 13.25 7.24222C11.9734 3.71051 9.91925 1.59888 8.87349 2.03204C8.19332 2.31378 8.06719 3.69618 8.43944 5.53921C8.44375 4.77353 8.64407 4.26926 9.05994 4.097C9.98196 3.71509 13.0471 6.07785 14.003 11.0839C14.1171 11.6812 14.2268 12.2245 14.3301 12.719Z" fill="currentColor"/>
<path d="M13.6701 15.2809C13.607 16.5235 13.9408 18.5184 14.7502 20.7577C16.0268 24.2894 18.081 26.401 19.1267 25.9679C19.8069 25.6861 19.933 24.3037 19.5608 22.4607C19.5565 23.2264 19.3561 23.7306 18.9403 23.9029C18.0182 24.2848 14.9531 21.922 13.9972 16.916C13.8831 16.3187 13.7734 15.7753 13.6701 15.2809Z" fill="currentColor"/>
<path d="M13.3277 12.8608C12.4936 11.9376 10.847 10.763 8.69123 9.75191C5.29124 8.15732 2.34559 8.11666 1.91242 9.16242C1.63069 9.84259 2.519 10.9093 4.08544 11.9493C3.54707 11.4048 3.33215 10.9066 3.5044 10.4907C3.88632 9.56871 7.72444 9.07204 11.9402 11.9359C12.4432 12.2776 12.905 12.5842 13.3277 12.8608Z" fill="currentColor"/>
<path d="M14.6725 15.1391C15.5065 16.0623 17.1531 17.2369 19.3089 18.248C22.7089 19.8426 25.6545 19.8832 26.0877 18.8375C26.3695 18.1573 25.4811 17.0906 23.9147 16.0506C24.4531 16.5951 24.668 17.0933 24.4957 17.5092C24.1138 18.4312 20.2757 18.9278 16.0599 16.064C15.557 15.7223 15.0951 15.4157 14.6725 15.1391Z" fill="currentColor"/>
<path d="M15.1392 13.3276C16.0624 12.4935 17.237 10.8469 18.2481 8.69111C19.8427 5.29112 19.8834 2.34547 18.8376 1.9123C18.1574 1.63056 17.0907 2.51888 16.0507 4.08532C16.5952 3.54695 17.0934 3.33202 17.5093 3.50428C18.4313 3.8862 18.928 7.72432 16.0641 11.9401C15.7224 12.4431 15.4158 12.9049 15.1392 13.3276Z" fill="currentColor"/>
<path d="M12.861 14.6723C11.9377 15.5064 10.7631 17.153 9.75203 19.3088C8.15744 22.7088 8.11679 25.6544 9.16254 26.0876C9.84272 26.3693 10.9094 25.481 11.9494 23.9146C11.4049 24.4529 10.9067 24.6679 10.4909 24.4956C9.56883 24.1137 9.07217 20.2756 11.9361 16.0598C12.2777 15.5568 12.5843 15.095 12.861 14.6723Z" fill="currentColor"/>
</g>
<defs>
<clipPath id="clip0_6_149">
<rect width="200" height="200" fill="currentColor" transform="translate(0.981201 0.981232)"/>
</clipPath>
</defs>
</svg>
