<svg viewBox="0 0 30 30" fill="none" xmlns="http://www.w3.org/2000/svg">
<g clip-path="url(#clip0_1035_909)">
<path d="M23.0038 0.791016H6.99615C3.57463 0.791016 0.791016 3.57463 0.791016 6.99615V23.0038C0.791016 26.4254 3.57463 29.209 6.99615 29.209H23.0038C26.4254 29.209 29.209 26.4254 29.209 23.0038V6.99615C29.209 3.57463 26.4254 0.791016 23.0038 0.791016ZM27.7441 23.0038C27.7441 25.6177 25.6177 27.7441 23.0038 27.7441H6.99615C4.38234 27.7441 2.25586 25.6177 2.25586 23.0038V6.99615C2.25586 4.38234 4.38234 2.25586 6.99615 2.25586H23.0038C25.6177 2.25586 27.7441 4.38234 27.7441 6.99615V23.0038ZM17.0171 13.6563L22.5455 6.76594C22.7986 6.45041 22.748 5.98945 22.4326 5.73627C22.117 5.4832 21.6561 5.53365 21.4029 5.84924L16.0781 12.4859L10.7534 5.84924C10.6143 5.67598 10.4042 5.57514 10.1821 5.57514H5.86951C5.58779 5.57514 5.33104 5.73674 5.20916 5.99074C5.08729 6.24475 5.12191 6.54615 5.29822 6.76588L12.9828 16.3437L7.45447 23.2341C7.20135 23.5496 7.25191 24.0105 7.56738 24.2637C7.70262 24.3722 7.86445 24.4249 8.02529 24.4249C8.23975 24.4249 8.45238 24.3311 8.59705 24.1508L13.9219 17.5141L19.2466 24.1508C19.3856 24.324 19.5957 24.4249 19.8179 24.4249H24.1304C24.1309 24.4249 24.1313 24.4249 24.1316 24.4249C24.5361 24.4249 24.864 24.097 24.864 23.6924C24.864 23.5057 24.7942 23.3354 24.6792 23.206L17.0171 13.6563ZM20.1693 22.96L7.39623 7.03998H9.83068L22.6038 22.96H20.1693Z" fill="white"/>
</g>
<defs>
<clipPath id="clip0_1035_909">
<rect width="30" height="30" fill="white"/>
</clipPath>
</defs>
</svg>
